<?xml version="1.0" encoding="UTF-8"?>
<svg xmlns="http://www.w3.org/2000/svg" xmlns:xlink="http://www.w3.org/1999/xlink" width="299.999375pt" height="151.01075pt" viewBox="0 0 299.999375 151.01075">
<defs>
<g>
<g id="glyph-0-0">
<path d="M 3.019531 -2.496094 L 3.019531 -2.488281 C 3.375 -2.433594 3.664062 -2.296875 3.890625 -2.097656 C 4.121094 -1.882812 4.242188 -1.609375 4.242188 -1.273438 C 4.242188 -0.871094 4.085938 -0.566406 3.777344 -0.335938 C 3.460938 -0.105469 3.046875 0 2.53125 0 L 0.121094 0 L 0.121094 -0.136719 C 0.402344 -0.144531 0.585938 -0.1875 0.671875 -0.273438 C 0.757812 -0.359375 0.808594 -0.535156 0.808594 -0.808594 L 0.808594 -3.933594 C 0.808594 -4.207031 0.765625 -4.386719 0.6875 -4.457031 C 0.601562 -4.527344 0.414062 -4.578125 0.121094 -4.597656 L 0.121094 -4.734375 L 2.125 -4.734375 C 2.738281 -4.734375 3.203125 -4.628906 3.519531 -4.421875 C 3.835938 -4.214844 4 -3.917969 4 -3.539062 C 4 -3.210938 3.898438 -2.96875 3.707031 -2.796875 C 3.5625 -2.675781 3.332031 -2.574219 3.019531 -2.496094 Z M 1.539062 -2.617188 L 2.195312 -2.617188 C 2.910156 -2.617188 3.269531 -2.910156 3.269531 -3.503906 C 3.269531 -3.804688 3.160156 -4.042969 2.945312 -4.214844 C 2.734375 -4.386719 2.417969 -4.472656 2.003906 -4.472656 L 1.710938 -4.472656 C 1.59375 -4.472656 1.539062 -4.390625 1.539062 -4.242188 Z M 1.539062 -2.332031 L 1.539062 -0.585938 C 1.539062 -0.464844 1.566406 -0.378906 1.632812 -0.335938 C 1.695312 -0.285156 1.808594 -0.265625 1.980469 -0.265625 C 2.304688 -0.265625 2.539062 -0.277344 2.695312 -0.316406 C 2.847656 -0.351562 2.996094 -0.4375 3.148438 -0.570312 C 3.328125 -0.730469 3.417969 -0.964844 3.417969 -1.28125 C 3.417969 -1.636719 3.304688 -1.894531 3.082031 -2.046875 C 3.027344 -2.082031 2.976562 -2.109375 2.925781 -2.140625 C 2.867188 -2.167969 2.824219 -2.1875 2.78125 -2.203125 C 2.738281 -2.21875 2.691406 -2.238281 2.625 -2.253906 C 2.554688 -2.265625 2.503906 -2.273438 2.46875 -2.28125 C 2.433594 -2.289062 2.367188 -2.296875 2.28125 -2.304688 C 2.1875 -2.304688 2.125 -2.308594 2.082031 -2.308594 C 2.039062 -2.308594 1.953125 -2.316406 1.824219 -2.324219 C 1.695312 -2.324219 1.601562 -2.332031 1.539062 -2.332031 Z M 1.539062 -2.332031 "/>
</g>
<g id="glyph-0-1">
<path d="M 3.160156 -0.472656 L 3.160156 -0.273438 C 2.976562 -0.0429688 2.761719 0.0625 2.519531 0.0625 C 2.246094 0.0625 2.089844 -0.105469 2.058594 -0.449219 L 2.054688 -0.449219 C 1.746094 -0.105469 1.402344 0.0625 1.015625 0.0625 C 0.785156 0.0625 0.609375 0 0.472656 -0.128906 C 0.328125 -0.257812 0.265625 -0.4375 0.265625 -0.671875 C 0.265625 -1 0.429688 -1.28125 0.765625 -1.507812 C 0.996094 -1.660156 1.421875 -1.851562 2.054688 -2.089844 L 2.054688 -2.476562 C 2.054688 -2.691406 1.996094 -2.847656 1.894531 -2.953125 C 1.796875 -3.0625 1.660156 -3.117188 1.496094 -3.117188 C 1.351562 -3.117188 1.230469 -3.082031 1.136719 -3.011719 C 1.039062 -2.941406 0.996094 -2.859375 0.996094 -2.769531 C 0.996094 -2.726562 1 -2.675781 1.015625 -2.625 C 1.03125 -2.566406 1.039062 -2.519531 1.039062 -2.46875 C 1.039062 -2.394531 1 -2.324219 0.9375 -2.265625 C 0.871094 -2.203125 0.792969 -2.175781 0.707031 -2.175781 C 0.621094 -2.175781 0.550781 -2.203125 0.492188 -2.265625 C 0.429688 -2.324219 0.402344 -2.402344 0.402344 -2.503906 C 0.402344 -2.734375 0.523438 -2.917969 0.765625 -3.074219 C 0.988281 -3.21875 1.257812 -3.289062 1.589844 -3.289062 C 1.972656 -3.289062 2.253906 -3.183594 2.433594 -2.96875 C 2.519531 -2.867188 2.566406 -2.761719 2.597656 -2.660156 C 2.617188 -2.5625 2.632812 -2.394531 2.632812 -2.175781 L 2.632812 -0.808594 C 2.632812 -0.492188 2.703125 -0.335938 2.855469 -0.335938 C 2.945312 -0.335938 3.046875 -0.378906 3.160156 -0.472656 Z M 2.054688 -0.910156 L 2.054688 -1.917969 C 1.609375 -1.757812 1.308594 -1.601562 1.136719 -1.445312 C 0.972656 -1.292969 0.894531 -1.109375 0.894531 -0.894531 C 0.894531 -0.707031 0.9375 -0.570312 1.03125 -0.480469 C 1.117188 -0.386719 1.238281 -0.34375 1.386719 -0.34375 C 1.546875 -0.34375 1.679688 -0.378906 1.800781 -0.457031 C 1.902344 -0.53125 1.96875 -0.59375 2.003906 -0.65625 C 2.03125 -0.714844 2.054688 -0.800781 2.054688 -0.910156 Z M 2.054688 -0.910156 "/>
</g>
<g id="glyph-0-2">
<path d="M 1.117188 -2.152344 L 1.859375 -1.703125 C 2.097656 -1.558594 2.261719 -1.421875 2.351562 -1.300781 C 2.4375 -1.171875 2.488281 -1.015625 2.488281 -0.824219 C 2.488281 -0.578125 2.390625 -0.371094 2.1875 -0.199219 C 1.988281 -0.0195312 1.757812 0.0625 1.488281 0.0625 C 1.257812 0.0625 1.085938 0.0429688 0.964844 0 C 0.835938 -0.0351562 0.722656 -0.0585938 0.636719 -0.0585938 C 0.550781 -0.0585938 0.492188 -0.0273438 0.464844 0.0195312 L 0.371094 0.0195312 L 0.371094 -1.09375 L 0.488281 -1.09375 C 0.558594 -0.742188 0.671875 -0.488281 0.816406 -0.328125 C 0.957031 -0.164062 1.152344 -0.0859375 1.394531 -0.0859375 C 1.566406 -0.0859375 1.710938 -0.136719 1.824219 -0.234375 C 1.929688 -0.335938 1.988281 -0.457031 1.988281 -0.613281 C 1.988281 -0.828125 1.859375 -1.007812 1.609375 -1.152344 L 1.222656 -1.367188 C 0.652344 -1.679688 0.363281 -2.03125 0.363281 -2.402344 C 0.363281 -2.675781 0.449219 -2.890625 0.628906 -3.046875 C 0.808594 -3.203125 1.050781 -3.285156 1.351562 -3.285156 C 1.558594 -3.285156 1.714844 -3.253906 1.832031 -3.203125 C 1.917969 -3.160156 1.980469 -3.148438 2.03125 -3.148438 C 2.058594 -3.148438 2.101562 -3.167969 2.144531 -3.21875 L 2.226562 -3.21875 L 2.261719 -2.246094 L 2.152344 -2.246094 C 2.066406 -2.566406 1.96875 -2.796875 1.84375 -2.925781 C 1.722656 -3.054688 1.558594 -3.125 1.34375 -3.125 C 1.179688 -3.125 1.050781 -3.082031 0.953125 -3.003906 C 0.851562 -2.917969 0.808594 -2.796875 0.808594 -2.640625 C 0.808594 -2.554688 0.828125 -2.46875 0.886719 -2.375 C 0.945312 -2.28125 1.015625 -2.210938 1.117188 -2.152344 Z M 1.117188 -2.152344 "/>
</g>
<g id="glyph-0-3">
<path d="M 2.917969 -1.171875 L 3.03125 -1.121094 C 2.746094 -0.328125 2.246094 0.0625 1.539062 0.0625 C 1.117188 0.0625 0.785156 -0.078125 0.542969 -0.371094 C 0.300781 -0.65625 0.179688 -1.050781 0.179688 -1.550781 C 0.179688 -2.058594 0.316406 -2.476562 0.585938 -2.804688 C 0.859375 -3.125 1.214844 -3.289062 1.660156 -3.289062 C 2.089844 -3.289062 2.417969 -3.125 2.652344 -2.796875 C 2.789062 -2.605469 2.867188 -2.332031 2.898438 -1.980469 L 0.695312 -1.980469 C 0.707031 -1.679688 0.738281 -1.453125 0.78125 -1.292969 C 0.824219 -1.136719 0.902344 -0.972656 1.023438 -0.816406 C 1.222656 -0.550781 1.488281 -0.421875 1.816406 -0.421875 C 2.046875 -0.421875 2.246094 -0.480469 2.402344 -0.59375 C 2.5625 -0.707031 2.734375 -0.902344 2.917969 -1.171875 Z M 0.707031 -2.210938 L 2.167969 -2.210938 C 2.125 -2.511719 2.054688 -2.71875 1.953125 -2.847656 C 1.851562 -2.96875 1.695312 -3.03125 1.464844 -3.03125 C 1.265625 -3.03125 1.09375 -2.960938 0.964844 -2.816406 C 0.828125 -2.675781 0.742188 -2.476562 0.707031 -2.210938 Z M 0.707031 -2.210938 "/>
</g>
<g id="glyph-0-4">
<path d="M 1.839844 0 L 0.148438 0 L 0.148438 -0.105469 C 0.371094 -0.121094 0.523438 -0.171875 0.59375 -0.242188 C 0.664062 -0.316406 0.699219 -0.457031 0.699219 -0.65625 L 0.699219 -4.011719 C 0.699219 -4.183594 0.679688 -4.300781 0.636719 -4.371094 C 0.59375 -4.433594 0.515625 -4.472656 0.402344 -4.472656 C 0.300781 -4.472656 0.207031 -4.464844 0.136719 -4.457031 L 0.136719 -4.570312 C 0.585938 -4.679688 0.964844 -4.785156 1.265625 -4.886719 L 1.300781 -4.855469 L 1.300781 -0.621094 C 1.300781 -0.421875 1.332031 -0.285156 1.402344 -0.222656 C 1.464844 -0.15625 1.609375 -0.121094 1.839844 -0.105469 Z M 1.839844 0 "/>
</g>
<g id="glyph-0-5">
<path d="M 1.289062 -4.519531 C 1.289062 -4.414062 1.25 -4.328125 1.179688 -4.257812 C 1.109375 -4.183594 1.015625 -4.15625 0.914062 -4.15625 C 0.816406 -4.15625 0.730469 -4.183594 0.65625 -4.257812 C 0.585938 -4.328125 0.558594 -4.414062 0.558594 -4.519531 C 0.558594 -4.621094 0.59375 -4.707031 0.664062 -4.777344 C 0.738281 -4.851562 0.824219 -4.886719 0.921875 -4.886719 C 1.023438 -4.886719 1.109375 -4.851562 1.179688 -4.777344 C 1.25 -4.707031 1.289062 -4.621094 1.289062 -4.519531 Z M 1.808594 0 L 0.113281 0 L 0.113281 -0.105469 C 0.359375 -0.121094 0.515625 -0.164062 0.578125 -0.234375 C 0.644531 -0.308594 0.679688 -0.472656 0.679688 -0.742188 L 0.679688 -2.367188 C 0.679688 -2.53125 0.65625 -2.648438 0.628906 -2.71875 C 0.59375 -2.78125 0.53125 -2.816406 0.445312 -2.816406 C 0.328125 -2.816406 0.230469 -2.804688 0.144531 -2.78125 L 0.144531 -2.898438 L 1.25 -3.289062 L 1.28125 -3.261719 L 1.28125 -0.75 C 1.28125 -0.480469 1.308594 -0.316406 1.367188 -0.242188 C 1.421875 -0.171875 1.574219 -0.121094 1.808594 -0.105469 Z M 1.808594 0 "/>
</g>
<g id="glyph-0-6">
<path d="M 3.46875 0 L 1.980469 0 L 1.988281 -0.105469 C 2.160156 -0.121094 2.28125 -0.171875 2.339844 -0.257812 C 2.394531 -0.34375 2.433594 -0.507812 2.433594 -0.75 L 2.433594 -2.175781 C 2.433594 -2.652344 2.253906 -2.898438 1.910156 -2.898438 C 1.789062 -2.898438 1.675781 -2.867188 1.574219 -2.8125 C 1.464844 -2.753906 1.332031 -2.648438 1.171875 -2.488281 L 1.171875 -0.515625 C 1.171875 -0.371094 1.203125 -0.273438 1.265625 -0.214844 C 1.332031 -0.15625 1.453125 -0.121094 1.636719 -0.105469 L 1.636719 0 L 0.128906 0 L 0.128906 -0.105469 C 0.308594 -0.121094 0.429688 -0.164062 0.488281 -0.234375 C 0.542969 -0.308594 0.570312 -0.457031 0.570312 -0.671875 L 0.570312 -2.410156 C 0.570312 -2.582031 0.550781 -2.703125 0.523438 -2.777344 C 0.488281 -2.839844 0.421875 -2.875 0.320312 -2.875 C 0.222656 -2.875 0.15625 -2.859375 0.113281 -2.847656 L 0.113281 -2.96875 C 0.445312 -3.0625 0.773438 -3.167969 1.09375 -3.289062 L 1.152344 -3.269531 L 1.152344 -2.710938 L 1.160156 -2.710938 C 1.496094 -3.097656 1.839844 -3.289062 2.1875 -3.289062 C 2.460938 -3.289062 2.667969 -3.191406 2.8125 -3.003906 C 2.953125 -2.8125 3.03125 -2.539062 3.03125 -2.1875 L 3.03125 -0.609375 C 3.03125 -0.414062 3.0625 -0.285156 3.117188 -0.230469 C 3.175781 -0.164062 3.289062 -0.121094 3.46875 -0.105469 Z M 3.46875 0 "/>
</g>
<g id="glyph-0-7">
<path d="M 2.816406 0 L 0.84375 0 L 0.84375 -0.105469 C 1.101562 -0.121094 1.28125 -0.164062 1.378906 -0.25 C 1.472656 -0.335938 1.523438 -0.480469 1.523438 -0.679688 L 1.523438 -3.890625 C 1.523438 -4.121094 1.453125 -4.242188 1.308594 -4.242188 C 1.238281 -4.242188 1.128906 -4.214844 0.988281 -4.15625 L 0.792969 -4.085938 L 0.792969 -4.183594 L 2.074219 -4.835938 L 2.140625 -4.8125 L 2.140625 -0.542969 C 2.140625 -0.386719 2.183594 -0.273438 2.28125 -0.207031 C 2.375 -0.136719 2.554688 -0.105469 2.816406 -0.105469 Z M 2.816406 0 "/>
</g>
<g id="glyph-0-8">
<path d="M 3.390625 -0.980469 L 3.003906 0 L 0.207031 0 L 0.207031 -0.0859375 L 1.480469 -1.4375 C 1.808594 -1.78125 2.054688 -2.101562 2.195312 -2.394531 C 2.339844 -2.683594 2.410156 -2.984375 2.410156 -3.296875 C 2.410156 -3.613281 2.316406 -3.863281 2.144531 -4.042969 C 1.96875 -4.214844 1.722656 -4.304688 1.417969 -4.304688 C 1.160156 -4.304688 0.953125 -4.234375 0.800781 -4.105469 C 0.652344 -3.96875 0.507812 -3.726562 0.363281 -3.375 L 0.214844 -3.410156 C 0.292969 -3.855469 0.457031 -4.199219 0.699219 -4.457031 C 0.945312 -4.707031 1.28125 -4.835938 1.703125 -4.835938 C 2.097656 -4.835938 2.417969 -4.714844 2.660156 -4.476562 C 2.902344 -4.234375 3.027344 -3.933594 3.027344 -3.578125 C 3.027344 -3.03125 2.71875 -2.445312 2.109375 -1.800781 L 0.929688 -0.542969 L 2.605469 -0.542969 C 2.761719 -0.542969 2.882812 -0.570312 2.976562 -0.636719 C 3.070312 -0.695312 3.175781 -0.824219 3.289062 -1.023438 Z M 3.390625 -0.980469 "/>
</g>
<g id="glyph-0-9">
</g>
<g id="glyph-0-10">
<path d="M 1.136719 -3.277344 L 1.136719 -2.726562 C 1.4375 -3.097656 1.78125 -3.289062 2.167969 -3.289062 C 2.511719 -3.289062 2.796875 -3.148438 3.027344 -2.859375 C 3.246094 -2.574219 3.363281 -2.210938 3.363281 -1.765625 C 3.363281 -1.246094 3.210938 -0.808594 2.925781 -0.457031 C 2.640625 -0.105469 2.28125 0.0625 1.859375 0.0625 C 1.710938 0.0625 1.582031 0.0429688 1.480469 0 C 1.378906 -0.0351562 1.265625 -0.113281 1.136719 -0.234375 L 1.136719 0.878906 C 1.136719 1.101562 1.171875 1.246094 1.25 1.308594 C 1.324219 1.375 1.496094 1.410156 1.765625 1.417969 L 1.765625 1.546875 L 0.0351562 1.546875 L 0.0351562 1.421875 C 0.242188 1.402344 0.378906 1.359375 0.445312 1.300781 C 0.5 1.238281 0.535156 1.117188 0.535156 0.929688 L 0.535156 -2.410156 C 0.535156 -2.574219 0.515625 -2.683594 0.480469 -2.738281 C 0.4375 -2.789062 0.359375 -2.816406 0.242188 -2.816406 C 0.164062 -2.816406 0.105469 -2.8125 0.0625 -2.8125 L 0.0625 -2.925781 C 0.394531 -3.027344 0.738281 -3.148438 1.09375 -3.289062 Z M 1.136719 -2.390625 L 1.136719 -0.628906 C 1.136719 -0.523438 1.214844 -0.414062 1.378906 -0.316406 C 1.546875 -0.207031 1.710938 -0.15625 1.882812 -0.15625 C 2.140625 -0.15625 2.347656 -0.277344 2.503906 -0.523438 C 2.660156 -0.765625 2.746094 -1.082031 2.746094 -1.480469 C 2.746094 -1.894531 2.660156 -2.230469 2.503906 -2.480469 C 2.347656 -2.734375 2.132812 -2.859375 1.867188 -2.859375 C 1.695312 -2.859375 1.53125 -2.804688 1.375 -2.703125 C 1.214844 -2.597656 1.136719 -2.488281 1.136719 -2.390625 Z M 1.136719 -2.390625 "/>
</g>
<g id="glyph-0-11">
<path d="M 3.425781 0 L 1.988281 0 L 1.988281 -0.105469 C 2.101562 -0.113281 2.183594 -0.128906 2.21875 -0.148438 C 2.253906 -0.171875 2.273438 -0.214844 2.273438 -0.277344 C 2.273438 -0.320312 2.261719 -0.363281 2.230469 -0.40625 L 1.582031 -1.410156 L 1.015625 -0.53125 C 0.914062 -0.378906 0.871094 -0.277344 0.871094 -0.234375 C 0.871094 -0.148438 0.964844 -0.105469 1.160156 -0.105469 L 1.160156 0 L 0.121094 0 L 0.121094 -0.105469 C 0.234375 -0.113281 0.328125 -0.144531 0.394531 -0.1875 C 0.457031 -0.230469 0.542969 -0.328125 0.644531 -0.472656 L 1.460938 -1.652344 L 0.785156 -2.683594 C 0.671875 -2.847656 0.578125 -2.960938 0.507812 -3.019531 C 0.429688 -3.074219 0.335938 -3.113281 0.234375 -3.113281 L 0.171875 -3.113281 L 0.171875 -3.21875 L 1.652344 -3.21875 L 1.652344 -3.113281 C 1.445312 -3.105469 1.34375 -3.054688 1.34375 -2.953125 C 1.34375 -2.855469 1.453125 -2.640625 1.675781 -2.316406 C 1.730469 -2.230469 1.765625 -2.183594 1.773438 -2.175781 C 1.796875 -2.203125 1.867188 -2.308594 1.988281 -2.488281 C 2.011719 -2.53125 2.039062 -2.574219 2.074219 -2.625 C 2.101562 -2.667969 2.132812 -2.710938 2.144531 -2.738281 C 2.160156 -2.769531 2.183594 -2.796875 2.203125 -2.824219 C 2.21875 -2.855469 2.230469 -2.875 2.238281 -2.898438 C 2.246094 -2.917969 2.253906 -2.941406 2.253906 -2.953125 C 2.253906 -3.039062 2.152344 -3.097656 1.96875 -3.113281 L 1.96875 -3.21875 L 3.097656 -3.21875 L 3.097656 -3.113281 C 2.855469 -3.097656 2.660156 -2.996094 2.519531 -2.796875 L 1.925781 -1.9375 L 2.839844 -0.535156 C 3.027344 -0.25 3.21875 -0.105469 3.425781 -0.105469 Z M 3.425781 0 "/>
</g>
<g id="glyph-0-12">
<path d="M 0.59375 1 L 0.523438 0.867188 C 0.914062 0.59375 1.117188 0.34375 1.117188 0.101562 C 1.117188 0.0351562 1.082031 0.0078125 1.015625 0.0078125 C 0.996094 0.0078125 0.957031 0.0078125 0.914062 0.0195312 C 0.871094 0.0273438 0.835938 0.0351562 0.808594 0.0351562 C 0.53125 0.0351562 0.394531 -0.078125 0.394531 -0.320312 C 0.394531 -0.445312 0.429688 -0.542969 0.507812 -0.613281 C 0.585938 -0.6875 0.695312 -0.730469 0.824219 -0.730469 C 0.980469 -0.730469 1.117188 -0.664062 1.230469 -0.550781 C 1.335938 -0.4375 1.394531 -0.285156 1.394531 -0.105469 C 1.394531 0.105469 1.316406 0.316406 1.171875 0.523438 C 1.03125 0.722656 0.835938 0.886719 0.59375 1 Z M 0.59375 1 "/>
</g>
<g id="glyph-0-13">
<path d="M 1.292969 -0.308594 C 1.292969 -0.199219 1.25 -0.105469 1.171875 -0.0351562 C 1.09375 0.0351562 1 0.0703125 0.894531 0.0703125 C 0.78125 0.0703125 0.6875 0.0351562 0.613281 -0.0351562 C 0.535156 -0.105469 0.5 -0.199219 0.5 -0.316406 C 0.5 -0.421875 0.535156 -0.515625 0.613281 -0.59375 C 0.695312 -0.671875 0.785156 -0.714844 0.902344 -0.714844 C 1 -0.714844 1.09375 -0.671875 1.171875 -0.59375 C 1.25 -0.507812 1.292969 -0.414062 1.292969 -0.308594 Z M 1.292969 -0.308594 "/>
</g>
<g id="glyph-0-14">
<path d="M 4.722656 0 L 3.5625 0 L 1.859375 -2.203125 L 1.460938 -2.1875 L 1.460938 -0.800781 C 1.460938 -0.53125 1.496094 -0.351562 1.566406 -0.277344 C 1.636719 -0.199219 1.816406 -0.148438 2.097656 -0.136719 L 2.097656 0 L 0.121094 0 L 0.121094 -0.136719 C 0.394531 -0.15625 0.558594 -0.207031 0.628906 -0.292969 C 0.695312 -0.371094 0.730469 -0.570312 0.730469 -0.886719 L 0.730469 -3.941406 C 0.730469 -4.207031 0.695312 -4.378906 0.628906 -4.457031 C 0.558594 -4.527344 0.394531 -4.578125 0.121094 -4.597656 L 0.121094 -4.734375 L 2.066406 -4.734375 C 2.71875 -4.734375 3.21875 -4.59375 3.5625 -4.3125 C 3.792969 -4.121094 3.914062 -3.835938 3.914062 -3.453125 C 3.914062 -2.804688 3.476562 -2.410156 2.617188 -2.28125 L 4.046875 -0.472656 C 4.148438 -0.34375 4.242188 -0.265625 4.335938 -0.222656 C 4.421875 -0.179688 4.550781 -0.148438 4.722656 -0.136719 Z M 1.460938 -4.171875 L 1.460938 -2.453125 C 1.800781 -2.453125 2.054688 -2.476562 2.226562 -2.511719 C 2.390625 -2.539062 2.554688 -2.605469 2.726562 -2.695312 C 2.996094 -2.847656 3.132812 -3.117188 3.132812 -3.511719 C 3.132812 -4.148438 2.695312 -4.472656 1.824219 -4.472656 C 1.695312 -4.472656 1.601562 -4.449219 1.546875 -4.40625 C 1.488281 -4.363281 1.460938 -4.285156 1.460938 -4.171875 Z M 1.460938 -4.171875 "/>
</g>
<g id="glyph-0-15">
<path d="M 2.847656 -1.117188 L 2.945312 -1.050781 C 2.738281 -0.652344 2.546875 -0.371094 2.359375 -0.230469 C 2.117188 -0.0273438 1.839844 0.0625 1.539062 0.0625 C 1.136719 0.0625 0.816406 -0.078125 0.558594 -0.378906 C 0.300781 -0.671875 0.179688 -1.050781 0.179688 -1.515625 C 0.179688 -2.117188 0.378906 -2.589844 0.78125 -2.925781 C 1.074219 -3.167969 1.394531 -3.289062 1.746094 -3.289062 C 2.046875 -3.289062 2.304688 -3.210938 2.519531 -3.070312 C 2.734375 -2.925781 2.847656 -2.753906 2.847656 -2.554688 C 2.847656 -2.46875 2.8125 -2.394531 2.746094 -2.339844 C 2.675781 -2.28125 2.597656 -2.253906 2.511719 -2.253906 C 2.339844 -2.253906 2.226562 -2.359375 2.167969 -2.582031 L 2.125 -2.738281 C 2.082031 -2.867188 2.039062 -2.960938 1.980469 -3.011719 C 1.925781 -3.054688 1.832031 -3.082031 1.703125 -3.082031 C 1.410156 -3.082031 1.171875 -2.96875 0.996094 -2.738281 C 0.816406 -2.511719 0.730469 -2.210938 0.730469 -1.839844 C 0.730469 -1.421875 0.828125 -1.085938 1.039062 -0.828125 C 1.238281 -0.570312 1.507812 -0.445312 1.839844 -0.445312 C 2.039062 -0.445312 2.21875 -0.488281 2.367188 -0.585938 C 2.511719 -0.6875 2.675781 -0.859375 2.847656 -1.117188 Z M 2.847656 -1.117188 "/>
</g>
<g id="glyph-0-16">
<path d="M 3.382812 -1.195312 L 2.648438 -1.195312 L 2.648438 0 L 2.089844 0 L 2.089844 -1.195312 L 0.0859375 -1.195312 L 0.0859375 -1.652344 L 2.332031 -4.835938 L 2.648438 -4.835938 L 2.648438 -1.652344 L 3.382812 -1.652344 Z M 2.089844 -1.652344 L 2.089844 -4.105469 L 0.371094 -1.652344 Z M 2.089844 -1.652344 "/>
</g>
<g id="glyph-0-17">
<path d="M 3.433594 -0.359375 L 3.433594 -0.257812 C 3.0625 -0.15625 2.734375 -0.0507812 2.453125 0.0585938 L 2.417969 0.0351562 L 2.417969 -0.542969 L 2.402344 -0.542969 C 2.101562 -0.136719 1.757812 0.0625 1.378906 0.0625 C 1.109375 0.0625 0.894531 -0.015625 0.738281 -0.179688 C 0.578125 -0.34375 0.507812 -0.566406 0.507812 -0.84375 L 0.507812 -2.640625 C 0.507812 -2.8125 0.472656 -2.933594 0.414062 -3.003906 C 0.351562 -3.070312 0.234375 -3.105469 0.0625 -3.117188 L 0.0625 -3.21875 L 1.109375 -3.21875 L 1.109375 -0.910156 C 1.109375 -0.742188 1.152344 -0.609375 1.25 -0.5 C 1.351562 -0.394531 1.472656 -0.34375 1.617188 -0.34375 C 1.84375 -0.34375 2.046875 -0.414062 2.21875 -0.566406 C 2.273438 -0.621094 2.316406 -0.671875 2.347656 -0.722656 C 2.367188 -0.773438 2.382812 -0.859375 2.382812 -0.980469 L 2.382812 -2.632812 C 2.382812 -2.816406 2.347656 -2.933594 2.28125 -2.988281 C 2.210938 -3.046875 2.066406 -3.082031 1.851562 -3.097656 L 1.851562 -3.21875 L 2.984375 -3.21875 L 2.984375 -0.765625 C 2.984375 -0.59375 3.003906 -0.488281 3.0625 -0.4375 C 3.117188 -0.378906 3.226562 -0.359375 3.390625 -0.359375 Z M 3.433594 -0.359375 "/>
</g>
<g id="glyph-0-18">
<path d="M 3.363281 -2.777344 L 2.769531 -2.777344 C 2.855469 -2.566406 2.902344 -2.367188 2.902344 -2.175781 C 2.902344 -1.800781 2.777344 -1.53125 2.53125 -1.34375 C 2.28125 -1.160156 2.03125 -1.066406 1.789062 -1.066406 C 1.730469 -1.066406 1.644531 -1.074219 1.515625 -1.085938 L 1.378906 -1.101562 C 1.28125 -1.074219 1.1875 -1.007812 1.09375 -0.910156 C 0.996094 -0.808594 0.953125 -0.722656 0.953125 -0.652344 C 0.953125 -0.535156 1.136719 -0.472656 1.507812 -0.457031 L 2.433594 -0.414062 C 2.691406 -0.402344 2.902344 -0.328125 3.0625 -0.191406 C 3.21875 -0.0585938 3.296875 0.113281 3.296875 0.34375 C 3.296875 0.613281 3.15625 0.867188 2.867188 1.09375 C 2.46875 1.394531 1.996094 1.550781 1.4375 1.550781 C 1.09375 1.550781 0.800781 1.480469 0.558594 1.34375 C 0.316406 1.207031 0.199219 1.042969 0.199219 0.859375 C 0.199219 0.722656 0.25 0.585938 0.359375 0.457031 C 0.457031 0.328125 0.644531 0.171875 0.902344 -0.0078125 C 0.742188 -0.078125 0.644531 -0.136719 0.59375 -0.191406 C 0.542969 -0.242188 0.523438 -0.308594 0.523438 -0.386719 C 0.523438 -0.523438 0.628906 -0.6875 0.851562 -0.878906 C 0.957031 -0.972656 1.058594 -1.066406 1.160156 -1.164062 C 0.914062 -1.28125 0.742188 -1.417969 0.644531 -1.566406 C 0.542969 -1.710938 0.492188 -1.894531 0.492188 -2.125 C 0.492188 -2.445312 0.609375 -2.71875 0.835938 -2.945312 C 1.066406 -3.175781 1.351562 -3.289062 1.6875 -3.289062 C 1.875 -3.289062 2.066406 -3.253906 2.261719 -3.183594 L 2.417969 -3.125 C 2.554688 -3.074219 2.683594 -3.054688 2.8125 -3.054688 L 3.363281 -3.054688 Z M 1.085938 -2.417969 L 1.085938 -2.394531 C 1.085938 -2.054688 1.152344 -1.773438 1.289062 -1.558594 C 1.421875 -1.34375 1.601562 -1.246094 1.824219 -1.246094 C 1.980469 -1.246094 2.109375 -1.300781 2.210938 -1.417969 C 2.304688 -1.53125 2.351562 -1.6875 2.351562 -1.886719 C 2.351562 -2.203125 2.28125 -2.488281 2.140625 -2.753906 C 2.015625 -2.976562 1.84375 -3.089844 1.617188 -3.089844 C 1.445312 -3.089844 1.316406 -3.027344 1.222656 -2.910156 C 1.128906 -2.789062 1.085938 -2.625 1.085938 -2.417969 Z M 3.097656 0.449219 C 3.097656 0.316406 3.027344 0.222656 2.898438 0.171875 C 2.769531 0.121094 2.539062 0.101562 2.210938 0.101562 C 1.738281 0.101562 1.351562 0.0625 1.050781 0.0078125 C 0.910156 0.179688 0.808594 0.300781 0.765625 0.378906 C 0.722656 0.457031 0.699219 0.535156 0.699219 0.621094 C 0.699219 0.78125 0.792969 0.902344 0.980469 1 C 1.164062 1.09375 1.421875 1.144531 1.738281 1.144531 C 2.140625 1.144531 2.46875 1.082031 2.71875 0.953125 C 2.96875 0.824219 3.097656 0.65625 3.097656 0.449219 Z M 3.097656 0.449219 "/>
</g>
<g id="glyph-0-19">
<path d="M 3.183594 -1.109375 C 3.183594 -0.738281 3.054688 -0.445312 2.796875 -0.230469 C 2.539062 -0.015625 2.203125 0.09375 1.773438 0.09375 C 1.375 0.09375 1.042969 -0.015625 0.785156 -0.230469 C 0.53125 -0.445312 0.402344 -0.722656 0.402344 -1.066406 C 0.402344 -1.316406 0.457031 -1.53125 0.585938 -1.710938 C 0.707031 -1.886719 0.957031 -2.109375 1.332031 -2.375 C 0.972656 -2.667969 0.730469 -2.902344 0.613281 -3.089844 C 0.5 -3.269531 0.445312 -3.476562 0.445312 -3.71875 C 0.445312 -4.054688 0.570312 -4.328125 0.828125 -4.527344 C 1.085938 -4.726562 1.421875 -4.835938 1.832031 -4.835938 C 2.175781 -4.835938 2.460938 -4.734375 2.691406 -4.535156 C 2.917969 -4.335938 3.03125 -4.097656 3.03125 -3.8125 C 3.03125 -3.546875 2.960938 -3.339844 2.824219 -3.183594 C 2.691406 -3.027344 2.4375 -2.847656 2.074219 -2.652344 C 2.503906 -2.367188 2.789062 -2.109375 2.945312 -1.886719 C 3.105469 -1.660156 3.183594 -1.402344 3.183594 -1.109375 Z M 2.539062 -3.8125 C 2.539062 -4.054688 2.46875 -4.257812 2.332031 -4.40625 C 2.1875 -4.554688 2.003906 -4.636719 1.757812 -4.636719 C 1.515625 -4.636719 1.324219 -4.570312 1.179688 -4.441406 C 1.039062 -4.3125 0.972656 -4.140625 0.972656 -3.925781 C 0.972656 -3.707031 1.039062 -3.503906 1.179688 -3.328125 C 1.324219 -3.148438 1.550781 -2.96875 1.867188 -2.78125 C 2.109375 -2.925781 2.28125 -3.074219 2.382812 -3.234375 C 2.480469 -3.390625 2.539062 -3.582031 2.539062 -3.8125 Z M 1.9375 -1.945312 L 1.515625 -2.230469 C 1.300781 -2.058594 1.160156 -1.886719 1.074219 -1.722656 C 0.988281 -1.558594 0.945312 -1.359375 0.945312 -1.128906 C 0.945312 -0.800781 1.023438 -0.550781 1.1875 -0.371094 C 1.351562 -0.1875 1.574219 -0.101562 1.851562 -0.101562 C 2.082031 -0.101562 2.273438 -0.171875 2.417969 -0.316406 C 2.5625 -0.457031 2.640625 -0.652344 2.640625 -0.886719 C 2.640625 -1.101562 2.582031 -1.289062 2.476562 -1.453125 C 2.359375 -1.609375 2.183594 -1.773438 1.9375 -1.945312 Z M 1.9375 -1.945312 "/>
</g>
<g id="glyph-0-20">
<path d="M 3.40625 -2.359375 C 3.40625 -2.039062 3.367188 -1.738281 3.3125 -1.453125 C 3.246094 -1.164062 3.15625 -0.910156 3.03125 -0.671875 C 2.910156 -0.429688 2.746094 -0.242188 2.53125 -0.105469 C 2.316406 0.0195312 2.066406 0.09375 1.789062 0.09375 C 1.496094 0.09375 1.238281 0.0195312 1.023438 -0.121094 C 0.800781 -0.265625 0.628906 -0.464844 0.515625 -0.714844 C 0.394531 -0.957031 0.308594 -1.222656 0.25 -1.507812 C 0.191406 -1.789062 0.171875 -2.089844 0.171875 -2.402344 C 0.171875 -2.847656 0.222656 -3.242188 0.335938 -3.597656 C 0.445312 -3.957031 0.621094 -4.25 0.878906 -4.484375 C 1.136719 -4.714844 1.445312 -4.835938 1.816406 -4.835938 C 2.28125 -4.835938 2.660156 -4.605469 2.960938 -4.148438 C 3.253906 -3.691406 3.40625 -3.089844 3.40625 -2.359375 Z M 2.71875 -2.324219 C 2.71875 -3.074219 2.632812 -3.648438 2.476562 -4.046875 C 2.316406 -4.449219 2.082031 -4.648438 1.773438 -4.648438 C 1.472656 -4.648438 1.25 -4.449219 1.09375 -4.046875 C 0.9375 -3.648438 0.859375 -3.082031 0.859375 -2.351562 C 0.859375 -1.617188 0.9375 -1.050781 1.09375 -0.664062 C 1.25 -0.277344 1.480469 -0.0859375 1.789062 -0.0859375 C 2.089844 -0.0859375 2.316406 -0.277344 2.476562 -0.664062 C 2.632812 -1.050781 2.71875 -1.609375 2.71875 -2.324219 Z M 2.71875 -2.324219 "/>
</g>
<g id="glyph-0-21">
<path d="M 4.550781 -1.574219 L 2.683594 -1.574219 L 2.683594 0.285156 L 2.210938 0.285156 L 2.210938 -1.574219 L 0.34375 -1.574219 L 0.34375 -2.046875 L 2.210938 -2.046875 L 2.210938 -3.914062 L 2.683594 -3.914062 L 2.683594 -2.046875 L 4.550781 -2.046875 Z M 4.550781 -1.574219 "/>
</g>
<g id="glyph-0-22">
<path d="M 3.511719 -0.300781 L 2.460938 0.0625 L 2.433594 0.0429688 L 2.433594 -0.40625 C 2.203125 -0.09375 1.894531 0.0625 1.515625 0.0625 C 1.117188 0.0625 0.800781 -0.0703125 0.558594 -0.359375 C 0.316406 -0.636719 0.191406 -1.007812 0.191406 -1.464844 C 0.191406 -1.96875 0.335938 -2.394531 0.628906 -2.753906 C 0.914062 -3.113281 1.265625 -3.289062 1.679688 -3.289062 C 1.9375 -3.289062 2.1875 -3.183594 2.433594 -2.984375 L 2.433594 -4.097656 C 2.433594 -4.242188 2.410156 -4.34375 2.367188 -4.390625 C 2.324219 -4.433594 2.230469 -4.464844 2.101562 -4.464844 C 2.03125 -4.464844 1.980469 -4.457031 1.945312 -4.457031 L 1.945312 -4.570312 C 2.375 -4.683594 2.726562 -4.785156 2.996094 -4.886719 L 3.03125 -4.871094 L 3.03125 -0.816406 C 3.03125 -0.644531 3.046875 -0.535156 3.089844 -0.488281 C 3.132812 -0.429688 3.21875 -0.40625 3.347656 -0.40625 C 3.375 -0.40625 3.425781 -0.40625 3.511719 -0.414062 Z M 2.433594 -0.730469 L 2.433594 -2.375 C 2.433594 -2.5625 2.351562 -2.734375 2.210938 -2.875 C 2.066406 -3.019531 1.894531 -3.089844 1.703125 -3.089844 C 1.429688 -3.089844 1.207031 -2.96875 1.050781 -2.726562 C 0.886719 -2.480469 0.808594 -2.152344 0.808594 -1.753906 C 0.808594 -1.308594 0.894531 -0.957031 1.074219 -0.695312 C 1.25 -0.429688 1.496094 -0.300781 1.796875 -0.300781 C 2.015625 -0.300781 2.195312 -0.371094 2.324219 -0.53125 C 2.394531 -0.609375 2.433594 -0.671875 2.433594 -0.730469 Z M 2.433594 -0.730469 "/>
</g>
<g id="glyph-0-23">
<path d="M 1.144531 -3.277344 L 1.144531 -2.617188 C 1.324219 -2.875 1.472656 -3.046875 1.59375 -3.148438 C 1.714844 -3.242188 1.851562 -3.289062 2.003906 -3.289062 C 2.125 -3.289062 2.21875 -3.253906 2.289062 -3.191406 C 2.359375 -3.117188 2.394531 -3.027344 2.394531 -2.910156 C 2.394531 -2.8125 2.367188 -2.734375 2.316406 -2.675781 C 2.265625 -2.617188 2.203125 -2.589844 2.117188 -2.589844 C 2.023438 -2.589844 1.929688 -2.632812 1.832031 -2.734375 C 1.753906 -2.804688 1.6875 -2.839844 1.644531 -2.839844 C 1.546875 -2.839844 1.429688 -2.769531 1.316406 -2.632812 C 1.203125 -2.488281 1.144531 -2.367188 1.144531 -2.253906 L 1.144531 -0.644531 C 1.144531 -0.4375 1.179688 -0.300781 1.265625 -0.230469 C 1.34375 -0.15625 1.507812 -0.113281 1.753906 -0.105469 L 1.753906 0 L 0.0351562 0 L 0.0351562 -0.105469 C 0.265625 -0.148438 0.402344 -0.191406 0.457031 -0.25 C 0.515625 -0.300781 0.542969 -0.414062 0.542969 -0.601562 L 0.542969 -2.390625 C 0.542969 -2.546875 0.523438 -2.652344 0.488281 -2.71875 C 0.449219 -2.78125 0.386719 -2.816406 0.300781 -2.816406 C 0.222656 -2.816406 0.136719 -2.804688 0.0507812 -2.789062 L 0.0507812 -2.902344 C 0.351562 -2.996094 0.699219 -3.125 1.109375 -3.289062 Z M 1.144531 -3.277344 "/>
</g>
<g id="glyph-0-24">
<path d="M 3.363281 -1.652344 C 3.363281 -1.152344 3.210938 -0.738281 2.910156 -0.414062 C 2.609375 -0.09375 2.226562 0.0625 1.753906 0.0625 C 1.308594 0.0625 0.945312 -0.09375 0.652344 -0.414062 C 0.351562 -0.730469 0.207031 -1.136719 0.207031 -1.632812 C 0.207031 -2.125 0.351562 -2.523438 0.652344 -2.832031 C 0.945312 -3.132812 1.332031 -3.289062 1.816406 -3.289062 C 2.261719 -3.289062 2.625 -3.132812 2.917969 -2.832031 C 3.210938 -2.53125 3.363281 -2.140625 3.363281 -1.652344 Z M 2.71875 -1.460938 C 2.71875 -2.003906 2.597656 -2.425781 2.359375 -2.734375 C 2.167969 -2.96875 1.9375 -3.089844 1.679688 -3.089844 C 1.429688 -3.089844 1.230469 -2.984375 1.082031 -2.78125 C 0.921875 -2.582031 0.851562 -2.304688 0.851562 -1.953125 C 0.851562 -1.335938 0.972656 -0.851562 1.230469 -0.488281 C 1.386719 -0.242188 1.601562 -0.128906 1.875 -0.128906 C 2.132812 -0.128906 2.339844 -0.242188 2.488281 -0.480469 C 2.640625 -0.714844 2.71875 -1.042969 2.71875 -1.460938 Z M 2.71875 -1.460938 "/>
</g>
<g id="glyph-0-25">
<path d="M 1.902344 -0.550781 L 1.996094 -0.472656 C 1.765625 -0.113281 1.472656 0.0625 1.128906 0.0625 C 0.707031 0.0625 0.5 -0.234375 0.5 -0.835938 L 0.5 -2.988281 L 0.121094 -2.988281 C 0.101562 -3.003906 0.09375 -3.019531 0.09375 -3.039062 C 0.09375 -3.074219 0.128906 -3.117188 0.214844 -3.175781 C 0.394531 -3.277344 0.621094 -3.535156 0.910156 -3.941406 C 0.914062 -3.957031 0.9375 -3.984375 0.972656 -4.027344 C 1.007812 -4.070312 1.039062 -4.113281 1.050781 -4.140625 C 1.082031 -4.140625 1.101562 -4.105469 1.101562 -4.046875 L 1.101562 -3.21875 L 1.824219 -3.21875 L 1.824219 -2.988281 L 1.101562 -2.988281 L 1.101562 -0.945312 C 1.101562 -0.714844 1.128906 -0.550781 1.1875 -0.449219 C 1.246094 -0.351562 1.335938 -0.300781 1.472656 -0.300781 C 1.617188 -0.300781 1.757812 -0.378906 1.902344 -0.550781 Z M 1.902344 -0.550781 "/>
</g>
<g id="glyph-0-26">
<path d="M 3.132812 -4.871094 L 2.875 -4.261719 C 2.847656 -4.199219 2.78125 -4.171875 2.683594 -4.171875 L 1.292969 -4.171875 L 1.007812 -3.5625 C 1.53125 -3.460938 1.910156 -3.347656 2.144531 -3.234375 C 2.375 -3.117188 2.597656 -2.917969 2.796875 -2.648438 C 2.960938 -2.417969 3.046875 -2.109375 3.046875 -1.738281 C 3.046875 -1.394531 2.988281 -1.101562 2.875 -0.871094 C 2.761719 -0.636719 2.589844 -0.429688 2.347656 -0.25 C 2.015625 -0.0195312 1.617188 0.09375 1.128906 0.09375 C 0.859375 0.09375 0.636719 0.0507812 0.472656 -0.0195312 C 0.300781 -0.101562 0.222656 -0.207031 0.222656 -0.34375 C 0.222656 -0.523438 0.328125 -0.613281 0.542969 -0.613281 C 0.714844 -0.613281 0.886719 -0.535156 1.074219 -0.394531 C 1.257812 -0.234375 1.421875 -0.164062 1.582031 -0.164062 C 1.824219 -0.164062 2.046875 -0.285156 2.246094 -0.535156 C 2.445312 -0.78125 2.546875 -1.058594 2.546875 -1.375 C 2.546875 -1.832031 2.382812 -2.1875 2.066406 -2.445312 C 1.652344 -2.777344 1.144531 -2.945312 0.542969 -2.945312 C 0.488281 -2.945312 0.457031 -2.960938 0.457031 -3.003906 L 0.464844 -3.039062 L 1.246094 -4.734375 L 2.726562 -4.734375 C 2.804688 -4.734375 2.867188 -4.742188 2.910156 -4.769531 C 2.953125 -4.792969 3.011719 -4.84375 3.070312 -4.921875 Z M 3.132812 -4.871094 "/>
</g>
<g id="glyph-0-27">
<path d="M 5.542969 0 L 3.984375 0 L 3.984375 -0.105469 C 4.183594 -0.121094 4.304688 -0.164062 4.363281 -0.230469 C 4.421875 -0.292969 4.449219 -0.429688 4.449219 -0.644531 L 4.449219 -2.117188 C 4.449219 -2.402344 4.40625 -2.605469 4.320312 -2.734375 C 4.234375 -2.855469 4.097656 -2.917969 3.898438 -2.917969 C 3.726562 -2.917969 3.582031 -2.882812 3.46875 -2.816406 C 3.355469 -2.746094 3.242188 -2.640625 3.132812 -2.480469 L 3.132812 -0.679688 C 3.132812 -0.449219 3.160156 -0.292969 3.234375 -0.222656 C 3.304688 -0.148438 3.441406 -0.105469 3.648438 -0.105469 L 3.648438 0 L 2.046875 0 L 2.046875 -0.105469 C 2.253906 -0.121094 2.390625 -0.148438 2.445312 -0.207031 C 2.503906 -0.265625 2.53125 -0.402344 2.53125 -0.613281 L 2.53125 -2.125 C 2.53125 -2.652344 2.375 -2.917969 2.066406 -2.917969 C 1.929688 -2.917969 1.789062 -2.882812 1.636719 -2.824219 C 1.488281 -2.769531 1.378906 -2.695312 1.308594 -2.609375 C 1.246094 -2.539062 1.214844 -2.496094 1.214844 -2.488281 L 1.214844 -0.5 C 1.214844 -0.34375 1.246094 -0.242188 1.316406 -0.191406 C 1.378906 -0.144531 1.507812 -0.113281 1.703125 -0.105469 L 1.703125 0 L 0.113281 0 L 0.113281 -0.105469 C 0.316406 -0.105469 0.445312 -0.144531 0.515625 -0.214844 C 0.578125 -0.285156 0.613281 -0.421875 0.613281 -0.628906 L 0.613281 -2.402344 C 0.613281 -2.574219 0.59375 -2.695312 0.558594 -2.769531 C 0.515625 -2.839844 0.449219 -2.875 0.363281 -2.875 C 0.292969 -2.875 0.214844 -2.859375 0.136719 -2.847656 L 0.136719 -2.96875 C 0.457031 -3.054688 0.785156 -3.160156 1.128906 -3.289062 L 1.1875 -3.269531 L 1.1875 -2.738281 L 1.203125 -2.738281 C 1.417969 -2.960938 1.601562 -3.113281 1.765625 -3.183594 C 1.929688 -3.253906 2.109375 -3.289062 2.296875 -3.289062 C 2.667969 -3.289062 2.925781 -3.089844 3.054688 -2.691406 C 3.425781 -3.089844 3.8125 -3.289062 4.21875 -3.289062 C 4.769531 -3.289062 5.050781 -2.859375 5.050781 -2.003906 L 5.050781 -0.550781 C 5.050781 -0.394531 5.070312 -0.277344 5.121094 -0.222656 C 5.164062 -0.164062 5.242188 -0.128906 5.359375 -0.121094 L 5.542969 -0.105469 Z M 5.542969 0 "/>
</g>
<g id="glyph-0-28">
<path d="M 2.175781 1.144531 L 2.089844 1.257812 C 1.53125 0.945312 1.101562 0.507812 0.800781 -0.0351562 C 0.492188 -0.585938 0.34375 -1.171875 0.34375 -1.800781 C 0.34375 -3.117188 0.929688 -4.132812 2.109375 -4.835938 L 2.175781 -4.722656 C 1.6875 -4.304688 1.359375 -3.890625 1.203125 -3.492188 C 1.039062 -3.089844 0.957031 -2.53125 0.957031 -1.824219 C 0.957031 -1.117188 1.039062 -0.542969 1.207031 -0.105469 C 1.375 0.320312 1.695312 0.742188 2.175781 1.144531 Z M 2.175781 1.144531 "/>
</g>
<g id="glyph-0-29">
<path d="M 1.09375 -4.871094 L 1.09375 -2.691406 C 1.164062 -2.867188 1.292969 -3.011719 1.464844 -3.125 C 1.636719 -3.234375 1.839844 -3.289062 2.058594 -3.289062 C 2.433594 -3.289062 2.738281 -3.140625 2.984375 -2.839844 C 3.226562 -2.539062 3.347656 -2.160156 3.347656 -1.714844 C 3.347656 -1.1875 3.183594 -0.757812 2.867188 -0.429688 C 2.546875 -0.101562 2.144531 0.0625 1.675781 0.0625 C 1.378906 0.0625 1.109375 0.015625 0.867188 -0.078125 C 0.613281 -0.171875 0.492188 -0.277344 0.492188 -0.402344 L 0.492188 -4.046875 C 0.492188 -4.21875 0.472656 -4.335938 0.429688 -4.386719 C 0.386719 -4.433594 0.285156 -4.464844 0.144531 -4.464844 C 0.105469 -4.464844 0.0625 -4.457031 0.0195312 -4.449219 L 0.0195312 -4.570312 L 0.234375 -4.636719 C 0.722656 -4.777344 0.996094 -4.863281 1.058594 -4.886719 Z M 1.09375 -2.273438 L 1.09375 -0.53125 C 1.09375 -0.414062 1.160156 -0.328125 1.292969 -0.257812 C 1.429688 -0.1875 1.59375 -0.15625 1.789062 -0.15625 C 2.066406 -0.15625 2.289062 -0.257812 2.453125 -0.464844 C 2.625 -0.679688 2.71875 -0.996094 2.71875 -1.410156 C 2.71875 -1.875 2.625 -2.238281 2.4375 -2.503906 C 2.28125 -2.726562 2.066406 -2.839844 1.800781 -2.839844 C 1.609375 -2.839844 1.445312 -2.78125 1.300781 -2.667969 C 1.160156 -2.554688 1.09375 -2.425781 1.09375 -2.273438 Z M 1.09375 -2.273438 "/>
</g>
<g id="glyph-0-30">
<path d="M 0.207031 -4.722656 L 0.292969 -4.835938 C 0.835938 -4.507812 1.257812 -4.070312 1.574219 -3.519531 C 1.882812 -2.960938 2.039062 -2.382812 2.039062 -1.765625 C 2.039062 -0.464844 1.445312 0.535156 0.273438 1.257812 L 0.207031 1.144531 C 0.695312 0.738281 1.023438 0.335938 1.179688 -0.0625 C 1.335938 -0.464844 1.421875 -1.023438 1.421875 -1.746094 C 1.421875 -2.46875 1.335938 -3.046875 1.179688 -3.484375 C 1.023438 -3.917969 0.695312 -4.335938 0.207031 -4.722656 Z M 0.207031 -4.722656 "/>
</g>
<g id="glyph-1-0">
<path d="M 4.257812 -2.949219 C 4.257812 -2.546875 4.210938 -2.171875 4.140625 -1.816406 C 4.058594 -1.457031 3.941406 -1.136719 3.792969 -0.839844 C 3.640625 -0.535156 3.433594 -0.304688 3.164062 -0.132812 C 2.898438 0.0273438 2.585938 0.117188 2.234375 0.117188 C 1.867188 0.117188 1.546875 0.0273438 1.277344 -0.152344 C 1 -0.332031 0.785156 -0.582031 0.644531 -0.894531 C 0.492188 -1.199219 0.382812 -1.527344 0.3125 -1.886719 C 0.242188 -2.234375 0.214844 -2.609375 0.214844 -3.003906 C 0.214844 -3.558594 0.277344 -4.050781 0.421875 -4.496094 C 0.554688 -4.945312 0.777344 -5.3125 1.101562 -5.605469 C 1.421875 -5.890625 1.804688 -6.042969 2.269531 -6.042969 C 2.851562 -6.042969 3.328125 -5.757812 3.703125 -5.1875 C 4.066406 -4.613281 4.257812 -3.863281 4.257812 -2.949219 Z M 3.398438 -2.90625 C 3.398438 -3.84375 3.289062 -4.558594 3.09375 -5.0625 C 2.898438 -5.5625 2.601562 -5.8125 2.21875 -5.8125 C 1.84375 -5.8125 1.566406 -5.5625 1.367188 -5.0625 C 1.171875 -4.558594 1.074219 -3.855469 1.074219 -2.941406 C 1.074219 -2.019531 1.171875 -1.3125 1.367188 -0.832031 C 1.566406 -0.347656 1.851562 -0.105469 2.234375 -0.105469 C 2.609375 -0.105469 2.898438 -0.347656 3.09375 -0.832031 C 3.289062 -1.3125 3.398438 -2.011719 3.398438 -2.90625 Z M 3.398438 -2.90625 "/>
</g>
<g id="glyph-1-1">
<path d="M 1.617188 -0.382812 C 1.617188 -0.25 1.566406 -0.132812 1.464844 -0.0429688 C 1.367188 0.0429688 1.25 0.0898438 1.117188 0.0898438 C 0.976562 0.0898438 0.859375 0.0429688 0.769531 -0.0429688 C 0.671875 -0.132812 0.625 -0.25 0.625 -0.394531 C 0.625 -0.527344 0.671875 -0.644531 0.769531 -0.742188 C 0.867188 -0.839844 0.984375 -0.894531 1.125 -0.894531 C 1.25 -0.894531 1.367188 -0.839844 1.464844 -0.742188 C 1.566406 -0.636719 1.617188 -0.519531 1.617188 -0.382812 Z M 1.617188 -0.382812 "/>
</g>
<g id="glyph-1-2">
<path d="M 3.988281 -6.117188 L 4.003906 -5.972656 C 3.300781 -5.855469 2.710938 -5.570312 2.246094 -5.113281 C 1.769531 -4.660156 1.476562 -4.09375 1.359375 -3.425781 C 1.699219 -3.691406 2.082031 -3.828125 2.496094 -3.828125 C 3.011719 -3.828125 3.425781 -3.65625 3.730469 -3.328125 C 4.03125 -2.988281 4.183594 -2.53125 4.183594 -1.957031 C 4.183594 -1.367188 4.03125 -0.894531 3.730469 -0.527344 C 3.371094 -0.0976562 2.898438 0.117188 2.308594 0.117188 C 1.574219 0.117188 1.046875 -0.179688 0.722656 -0.777344 C 0.4375 -1.289062 0.304688 -1.859375 0.304688 -2.496094 C 0.304688 -3.46875 0.625 -4.292969 1.277344 -4.960938 C 1.644531 -5.339844 2.019531 -5.605469 2.414062 -5.765625 C 2.808594 -5.929688 3.328125 -6.042969 3.988281 -6.117188 Z M 3.378906 -1.679688 C 3.378906 -2.835938 2.976562 -3.414062 2.171875 -3.414062 C 1.867188 -3.414062 1.628906 -3.335938 1.429688 -3.175781 C 1.234375 -3.011719 1.136719 -2.753906 1.136719 -2.378906 C 1.136719 -1.679688 1.242188 -1.125 1.457031 -0.722656 C 1.671875 -0.320312 1.992188 -0.125 2.40625 -0.125 C 2.71875 -0.125 2.960938 -0.257812 3.128906 -0.546875 C 3.289062 -0.832031 3.378906 -1.207031 3.378906 -1.679688 Z M 3.378906 -1.679688 "/>
</g>
<g id="glyph-1-3">
<path d="M 3.917969 -6.089844 L 3.59375 -5.328125 C 3.558594 -5.25 3.476562 -5.210938 3.351562 -5.210938 L 1.617188 -5.210938 L 1.261719 -4.453125 C 1.914062 -4.328125 2.386719 -4.183594 2.683594 -4.042969 C 2.96875 -3.898438 3.246094 -3.648438 3.496094 -3.308594 C 3.703125 -3.023438 3.808594 -2.636719 3.808594 -2.171875 C 3.808594 -1.742188 3.738281 -1.378906 3.59375 -1.089844 C 3.453125 -0.796875 3.238281 -0.535156 2.933594 -0.3125 C 2.519531 -0.0273438 2.019531 0.117188 1.414062 0.117188 C 1.074219 0.117188 0.796875 0.0625 0.589844 -0.0273438 C 0.375 -0.125 0.277344 -0.257812 0.277344 -0.429688 C 0.277344 -0.652344 0.410156 -0.769531 0.679688 -0.769531 C 0.894531 -0.769531 1.109375 -0.671875 1.339844 -0.492188 C 1.574219 -0.296875 1.78125 -0.207031 1.976562 -0.207031 C 2.28125 -0.207031 2.558594 -0.359375 2.808594 -0.671875 C 3.058594 -0.976562 3.183594 -1.324219 3.183594 -1.714844 C 3.183594 -2.289062 2.976562 -2.734375 2.585938 -3.058594 C 2.066406 -3.46875 1.429688 -3.683594 0.679688 -3.683594 C 0.609375 -3.683594 0.570312 -3.703125 0.570312 -3.753906 L 0.582031 -3.800781 L 1.554688 -5.917969 L 3.40625 -5.917969 C 3.503906 -5.917969 3.585938 -5.929688 3.640625 -5.964844 C 3.691406 -5.992188 3.765625 -6.054688 3.835938 -6.152344 Z M 3.917969 -6.089844 "/>
</g>
<g id="glyph-1-4">
<path d="M 4.015625 -5.777344 L 2.117188 0.0625 L 1.539062 0.0625 L 3.308594 -5.257812 L 1.386719 -5.257812 C 1.125 -5.257812 0.9375 -5.210938 0.8125 -5.125 C 0.6875 -5.035156 0.527344 -4.828125 0.339844 -4.523438 L 0.179688 -4.605469 L 0.714844 -5.917969 L 4.015625 -5.917969 Z M 4.015625 -5.777344 "/>
</g>
<g id="glyph-1-5">
<path d="M 3.980469 -1.386719 C 3.980469 -0.921875 3.816406 -0.554688 3.496094 -0.285156 C 3.175781 -0.0195312 2.753906 0.117188 2.21875 0.117188 C 1.714844 0.117188 1.304688 -0.0195312 0.984375 -0.285156 C 0.660156 -0.554688 0.5 -0.902344 0.5 -1.332031 C 0.5 -1.644531 0.570312 -1.914062 0.734375 -2.136719 C 0.886719 -2.359375 1.199219 -2.636719 1.664062 -2.96875 C 1.214844 -3.335938 0.910156 -3.628906 0.769531 -3.863281 C 0.625 -4.085938 0.554688 -4.34375 0.554688 -4.648438 C 0.554688 -5.070312 0.714844 -5.410156 1.039062 -5.660156 C 1.359375 -5.910156 1.78125 -6.042969 2.289062 -6.042969 C 2.71875 -6.042969 3.074219 -5.917969 3.363281 -5.667969 C 3.648438 -5.417969 3.792969 -5.125 3.792969 -4.765625 C 3.792969 -4.433594 3.703125 -4.175781 3.53125 -3.980469 C 3.363281 -3.78125 3.050781 -3.558594 2.59375 -3.316406 C 3.128906 -2.960938 3.488281 -2.636719 3.683594 -2.359375 C 3.878906 -2.074219 3.980469 -1.753906 3.980469 -1.386719 Z M 3.175781 -4.765625 C 3.175781 -5.070312 3.085938 -5.320312 2.914062 -5.507812 C 2.734375 -5.695312 2.503906 -5.792969 2.199219 -5.792969 C 1.894531 -5.792969 1.652344 -5.714844 1.476562 -5.550781 C 1.296875 -5.390625 1.214844 -5.175781 1.214844 -4.910156 C 1.214844 -4.632812 1.296875 -4.382812 1.476562 -4.15625 C 1.652344 -3.933594 1.941406 -3.710938 2.332031 -3.476562 C 2.636719 -3.65625 2.851562 -3.84375 2.976562 -4.042969 C 3.101562 -4.238281 3.175781 -4.480469 3.175781 -4.765625 Z M 2.421875 -2.433594 L 1.894531 -2.789062 C 1.628906 -2.574219 1.449219 -2.359375 1.339844 -2.15625 C 1.234375 -1.949219 1.179688 -1.699219 1.179688 -1.414062 C 1.179688 -1 1.277344 -0.6875 1.484375 -0.464844 C 1.691406 -0.234375 1.96875 -0.125 2.316406 -0.125 C 2.601562 -0.125 2.84375 -0.214844 3.023438 -0.394531 C 3.199219 -0.570312 3.300781 -0.8125 3.300781 -1.109375 C 3.300781 -1.378906 3.226562 -1.609375 3.09375 -1.816406 C 2.949219 -2.011719 2.726562 -2.21875 2.421875 -2.433594 Z M 2.421875 -2.433594 "/>
</g>
<g id="glyph-2-0">
<path d="M -5.917969 -6.230469 L -5.75 -6.230469 C -5.742188 -6.042969 -5.679688 -5.890625 -5.570312 -5.777344 C -5.464844 -5.652344 -5.25 -5.535156 -4.9375 -5.410156 L 0.0898438 -3.425781 L 0.0898438 -3.289062 L -4.765625 -1.109375 C -5.1875 -0.910156 -5.453125 -0.761719 -5.570312 -0.652344 C -5.679688 -0.535156 -5.742188 -0.367188 -5.75 -0.144531 L -5.917969 -0.144531 L -5.917969 -2.511719 L -5.75 -2.511719 L -5.730469 -2.261719 C -5.714844 -1.992188 -5.613281 -1.859375 -5.453125 -1.859375 C -5.328125 -1.859375 -5.015625 -1.976562 -4.496094 -2.207031 L -1.441406 -3.566406 L -4.738281 -4.882812 C -5.023438 -4.988281 -5.238281 -5.050781 -5.382812 -5.050781 C -5.417969 -5.050781 -5.453125 -5.042969 -5.488281 -5.035156 C -5.527344 -5.023438 -5.550781 -5.015625 -5.578125 -5.007812 C -5.597656 -4.988281 -5.625 -4.972656 -5.640625 -4.9375 C -5.660156 -4.898438 -5.667969 -4.882812 -5.679688 -4.863281 C -5.6875 -4.847656 -5.695312 -4.808594 -5.703125 -4.765625 C -5.714844 -4.710938 -5.722656 -4.675781 -5.722656 -4.660156 C -5.722656 -4.640625 -5.730469 -4.597656 -5.742188 -4.535156 C -5.742188 -4.472656 -5.75 -4.425781 -5.75 -4.40625 L -5.917969 -4.40625 Z M -5.917969 -6.230469 "/>
</g>
<g id="glyph-2-1">
<path d="M -0.589844 -3.953125 L -0.339844 -3.953125 C -0.0546875 -3.71875 0.0820312 -3.453125 0.0820312 -3.148438 C 0.0820312 -2.808594 -0.132812 -2.609375 -0.5625 -2.574219 L -0.5625 -2.566406 C -0.132812 -2.183594 0.0820312 -1.753906 0.0820312 -1.269531 C 0.0820312 -0.984375 0 -0.761719 -0.160156 -0.589844 C -0.320312 -0.410156 -0.546875 -0.332031 -0.839844 -0.332031 C -1.25 -0.332031 -1.601562 -0.535156 -1.886719 -0.957031 C -2.074219 -1.242188 -2.316406 -1.78125 -2.609375 -2.566406 L -3.09375 -2.566406 C -3.363281 -2.566406 -3.558594 -2.496094 -3.691406 -2.371094 C -3.828125 -2.246094 -3.898438 -2.074219 -3.898438 -1.867188 C -3.898438 -1.691406 -3.855469 -1.539062 -3.765625 -1.421875 C -3.675781 -1.296875 -3.578125 -1.242188 -3.460938 -1.242188 C -3.40625 -1.242188 -3.34375 -1.25 -3.28125 -1.269531 C -3.210938 -1.289062 -3.148438 -1.296875 -3.085938 -1.296875 C -2.996094 -1.296875 -2.90625 -1.25 -2.835938 -1.171875 C -2.753906 -1.089844 -2.71875 -0.992188 -2.71875 -0.886719 C -2.71875 -0.777344 -2.753906 -0.6875 -2.835938 -0.617188 C -2.90625 -0.535156 -3.003906 -0.5 -3.128906 -0.5 C -3.414062 -0.5 -3.648438 -0.652344 -3.84375 -0.957031 C -4.023438 -1.234375 -4.113281 -1.574219 -4.113281 -1.984375 C -4.113281 -2.46875 -3.980469 -2.816406 -3.710938 -3.039062 C -3.585938 -3.148438 -3.453125 -3.210938 -3.328125 -3.246094 C -3.199219 -3.273438 -2.996094 -3.289062 -2.71875 -3.289062 L -1.011719 -3.289062 C -0.617188 -3.289062 -0.421875 -3.378906 -0.421875 -3.566406 C -0.421875 -3.683594 -0.472656 -3.808594 -0.589844 -3.953125 Z M -1.136719 -2.566406 L -2.394531 -2.566406 C -2.199219 -2.011719 -2.003906 -1.636719 -1.804688 -1.421875 C -1.617188 -1.214844 -1.386719 -1.117188 -1.117188 -1.117188 C -0.886719 -1.117188 -0.714844 -1.171875 -0.597656 -1.289062 C -0.484375 -1.394531 -0.429688 -1.546875 -0.429688 -1.734375 C -0.429688 -1.929688 -0.472656 -2.101562 -0.570312 -2.253906 C -0.660156 -2.378906 -0.742188 -2.457031 -0.824219 -2.503906 C -0.894531 -2.539062 -1 -2.566406 -1.136719 -2.566406 Z M -1.136719 -2.566406 "/>
</g>
<g id="glyph-2-2">
<path d="M 0 -2.296875 L 0 -0.1875 L -0.132812 -0.1875 C -0.152344 -0.464844 -0.214844 -0.652344 -0.304688 -0.742188 C -0.394531 -0.832031 -0.570312 -0.875 -0.824219 -0.875 L -5.015625 -0.875 C -5.230469 -0.875 -5.375 -0.847656 -5.464844 -0.796875 C -5.542969 -0.742188 -5.589844 -0.644531 -5.589844 -0.5 C -5.589844 -0.375 -5.578125 -0.257812 -5.570312 -0.167969 L -5.714844 -0.167969 C -5.847656 -0.734375 -5.980469 -1.207031 -6.105469 -1.582031 L -6.070312 -1.628906 L -0.777344 -1.628906 C -0.527344 -1.628906 -0.359375 -1.664062 -0.277344 -1.753906 C -0.195312 -1.832031 -0.152344 -2.011719 -0.132812 -2.296875 Z M 0 -2.296875 "/>
</g>
<g id="glyph-2-3">
<path d="M -5.652344 -1.609375 C -5.515625 -1.609375 -5.410156 -1.566406 -5.320312 -1.476562 C -5.230469 -1.386719 -5.195312 -1.269531 -5.195312 -1.144531 C -5.195312 -1.019531 -5.230469 -0.910156 -5.320312 -0.824219 C -5.410156 -0.734375 -5.515625 -0.699219 -5.652344 -0.699219 C -5.777344 -0.699219 -5.882812 -0.742188 -5.972656 -0.832031 C -6.0625 -0.921875 -6.105469 -1.027344 -6.105469 -1.152344 C -6.105469 -1.277344 -6.0625 -1.386719 -5.972656 -1.476562 C -5.882812 -1.566406 -5.777344 -1.609375 -5.652344 -1.609375 Z M 0 -2.261719 L 0 -0.144531 L -0.132812 -0.144531 C -0.152344 -0.445312 -0.207031 -0.644531 -0.296875 -0.722656 C -0.382812 -0.804688 -0.589844 -0.847656 -0.929688 -0.847656 L -2.960938 -0.847656 C -3.164062 -0.847656 -3.308594 -0.824219 -3.398438 -0.785156 C -3.476562 -0.742188 -3.523438 -0.660156 -3.523438 -0.554688 C -3.523438 -0.410156 -3.503906 -0.285156 -3.476562 -0.179688 L -3.621094 -0.179688 L -4.113281 -1.566406 L -4.078125 -1.601562 L -0.9375 -1.601562 C -0.597656 -1.601562 -0.394531 -1.636719 -0.304688 -1.707031 C -0.214844 -1.78125 -0.152344 -1.96875 -0.132812 -2.261719 Z M 0 -2.261719 "/>
</g>
<g id="glyph-2-4">
<path d="M -0.375 -4.390625 L 0.0820312 -3.074219 L 0.0546875 -3.039062 L -0.507812 -3.039062 C -0.117188 -2.753906 0.0820312 -2.371094 0.0820312 -1.894531 C 0.0820312 -1.394531 -0.0898438 -1 -0.445312 -0.699219 C -0.796875 -0.394531 -1.261719 -0.242188 -1.832031 -0.242188 C -2.457031 -0.242188 -2.996094 -0.421875 -3.441406 -0.785156 C -3.890625 -1.144531 -4.113281 -1.582031 -4.113281 -2.101562 C -4.113281 -2.421875 -3.980469 -2.734375 -3.730469 -3.039062 L -5.125 -3.039062 C -5.300781 -3.039062 -5.425781 -3.011719 -5.488281 -2.960938 C -5.542969 -2.90625 -5.578125 -2.789062 -5.578125 -2.628906 C -5.578125 -2.539062 -5.570312 -2.476562 -5.570312 -2.433594 L -5.714844 -2.433594 C -5.855469 -2.96875 -5.980469 -3.40625 -6.105469 -3.746094 L -6.089844 -3.792969 L -1.019531 -3.792969 C -0.804688 -3.792969 -0.671875 -3.808594 -0.609375 -3.863281 C -0.535156 -3.917969 -0.507812 -4.023438 -0.507812 -4.183594 C -0.507812 -4.21875 -0.507812 -4.28125 -0.519531 -4.390625 Z M -0.910156 -3.039062 L -2.96875 -3.039062 C -3.199219 -3.039062 -3.414062 -2.941406 -3.59375 -2.761719 C -3.773438 -2.585938 -3.863281 -2.371094 -3.863281 -2.128906 C -3.863281 -1.789062 -3.710938 -1.511719 -3.40625 -1.3125 C -3.101562 -1.109375 -2.691406 -1.011719 -2.191406 -1.011719 C -1.636719 -1.011719 -1.199219 -1.117188 -0.867188 -1.339844 C -0.535156 -1.566406 -0.375 -1.867188 -0.375 -2.246094 C -0.375 -2.519531 -0.464844 -2.746094 -0.660156 -2.90625 C -0.761719 -2.996094 -0.839844 -3.039062 -0.910156 -3.039062 Z M -0.910156 -3.039062 "/>
</g>
<g id="glyph-2-5">
<path d="M -0.6875 -2.378906 L -0.589844 -2.496094 C -0.144531 -2.207031 0.0820312 -1.84375 0.0820312 -1.414062 C 0.0820312 -0.886719 -0.296875 -0.625 -1.046875 -0.625 L -3.738281 -0.625 L -3.738281 -0.152344 C -3.753906 -0.125 -3.773438 -0.117188 -3.800781 -0.117188 C -3.84375 -0.117188 -3.898438 -0.160156 -3.96875 -0.269531 C -4.09375 -0.492188 -4.417969 -0.777344 -4.925781 -1.136719 C -4.945312 -1.144531 -4.980469 -1.171875 -5.035156 -1.214844 C -5.085938 -1.261719 -5.140625 -1.296875 -5.175781 -1.3125 C -5.175781 -1.351562 -5.132812 -1.378906 -5.0625 -1.378906 L -4.023438 -1.378906 L -4.023438 -2.28125 L -3.738281 -2.28125 L -3.738281 -1.378906 L -1.179688 -1.378906 C -0.894531 -1.378906 -0.6875 -1.414062 -0.5625 -1.484375 C -0.4375 -1.554688 -0.375 -1.671875 -0.375 -1.84375 C -0.375 -2.019531 -0.472656 -2.199219 -0.6875 -2.378906 Z M -0.6875 -2.378906 "/>
</g>
<g id="glyph-2-6">
<path d="M -2.066406 -4.203125 C -1.441406 -4.203125 -0.921875 -4.015625 -0.519531 -3.640625 C -0.117188 -3.261719 0.0820312 -2.78125 0.0820312 -2.191406 C 0.0820312 -1.636719 -0.117188 -1.179688 -0.519531 -0.8125 C -0.910156 -0.4375 -1.421875 -0.257812 -2.039062 -0.257812 C -2.65625 -0.257812 -3.15625 -0.4375 -3.539062 -0.8125 C -3.917969 -1.179688 -4.113281 -1.664062 -4.113281 -2.269531 C -4.113281 -2.824219 -3.917969 -3.28125 -3.539062 -3.648438 C -3.164062 -4.015625 -2.671875 -4.203125 -2.066406 -4.203125 Z M -1.824219 -3.398438 C -2.503906 -3.398438 -3.03125 -3.246094 -3.414062 -2.949219 C -3.710938 -2.710938 -3.863281 -2.421875 -3.863281 -2.101562 C -3.863281 -1.789062 -3.730469 -1.539062 -3.476562 -1.351562 C -3.226562 -1.152344 -2.878906 -1.0625 -2.441406 -1.0625 C -1.671875 -1.0625 -1.0625 -1.214844 -0.609375 -1.539062 C -0.304688 -1.734375 -0.160156 -2.003906 -0.160156 -2.34375 C -0.160156 -2.664062 -0.304688 -2.925781 -0.597656 -3.113281 C -0.894531 -3.300781 -1.304688 -3.398438 -1.824219 -3.398438 Z M -1.824219 -3.398438 "/>
</g>
<g id="glyph-2-7">
<path d="M 0 -4.335938 L 0 -2.476562 L -0.132812 -2.484375 C -0.152344 -2.699219 -0.214844 -2.851562 -0.320312 -2.925781 C -0.429688 -2.996094 -0.636719 -3.039062 -0.9375 -3.039062 L -2.71875 -3.039062 C -3.316406 -3.039062 -3.621094 -2.816406 -3.621094 -2.386719 C -3.621094 -2.234375 -3.585938 -2.09375 -3.515625 -1.96875 C -3.441406 -1.832031 -3.308594 -1.664062 -3.113281 -1.464844 L -0.644531 -1.464844 C -0.464844 -1.464844 -0.339844 -1.503906 -0.269531 -1.582031 C -0.195312 -1.664062 -0.152344 -1.816406 -0.132812 -2.046875 L 0 -2.046875 L 0 -0.160156 L -0.132812 -0.160156 C -0.152344 -0.382812 -0.207031 -0.535156 -0.296875 -0.609375 C -0.382812 -0.679688 -0.570312 -0.714844 -0.839844 -0.714844 L -3.011719 -0.714844 C -3.226562 -0.714844 -3.378906 -0.6875 -3.46875 -0.652344 C -3.550781 -0.609375 -3.59375 -0.527344 -3.59375 -0.402344 C -3.59375 -0.277344 -3.578125 -0.195312 -3.558594 -0.144531 L -3.710938 -0.144531 C -3.828125 -0.554688 -3.960938 -0.964844 -4.113281 -1.367188 L -4.085938 -1.441406 L -3.390625 -1.441406 L -3.390625 -1.449219 C -3.871094 -1.867188 -4.113281 -2.296875 -4.113281 -2.734375 C -4.113281 -3.074219 -3.988281 -3.335938 -3.753906 -3.515625 C -3.515625 -3.691406 -3.175781 -3.792969 -2.734375 -3.792969 L -0.761719 -3.792969 C -0.519531 -3.792969 -0.359375 -3.828125 -0.285156 -3.898438 C -0.207031 -3.96875 -0.152344 -4.113281 -0.132812 -4.335938 Z M 0 -4.335938 "/>
</g>
<g id="glyph-2-8">
</g>
<g id="glyph-2-9">
<path d="M -1.394531 -3.558594 L -1.3125 -3.683594 C -0.8125 -3.425781 -0.464844 -3.183594 -0.285156 -2.949219 C -0.0351562 -2.648438 0.0820312 -2.296875 0.0820312 -1.921875 C 0.0820312 -1.421875 -0.0976562 -1.019531 -0.472656 -0.699219 C -0.839844 -0.375 -1.3125 -0.222656 -1.894531 -0.222656 C -2.648438 -0.222656 -3.238281 -0.472656 -3.65625 -0.976562 C -3.960938 -1.339844 -4.113281 -1.742188 -4.113281 -2.183594 C -4.113281 -2.558594 -4.015625 -2.878906 -3.835938 -3.148438 C -3.65625 -3.414062 -3.441406 -3.558594 -3.191406 -3.558594 C -3.085938 -3.558594 -2.996094 -3.515625 -2.925781 -3.433594 C -2.851562 -3.34375 -2.816406 -3.246094 -2.816406 -3.136719 C -2.816406 -2.925781 -2.949219 -2.78125 -3.226562 -2.710938 L -3.425781 -2.65625 C -3.585938 -2.601562 -3.703125 -2.546875 -3.765625 -2.476562 C -3.816406 -2.40625 -3.855469 -2.289062 -3.855469 -2.128906 C -3.855469 -1.761719 -3.710938 -1.464844 -3.425781 -1.242188 C -3.136719 -1.019531 -2.761719 -0.910156 -2.296875 -0.910156 C -1.78125 -0.910156 -1.359375 -1.039062 -1.039062 -1.296875 C -0.714844 -1.546875 -0.554688 -1.886719 -0.554688 -2.296875 C -0.554688 -2.546875 -0.609375 -2.773438 -0.734375 -2.960938 C -0.859375 -3.136719 -1.074219 -3.34375 -1.394531 -3.558594 Z M -1.394531 -3.558594 "/>
</g>
<g id="glyph-2-10">
<path d="M -0.445312 -4.292969 L -0.320312 -4.292969 C -0.195312 -3.828125 -0.0625 -3.414062 0.0703125 -3.066406 L 0.0429688 -3.023438 L -0.679688 -3.023438 L -0.679688 -3.003906 C -0.167969 -2.628906 0.0820312 -2.199219 0.0820312 -1.726562 C 0.0820312 -1.386719 -0.0195312 -1.117188 -0.222656 -0.921875 C -0.429688 -0.722656 -0.707031 -0.636719 -1.054688 -0.636719 L -3.300781 -0.636719 C -3.515625 -0.636719 -3.664062 -0.589844 -3.753906 -0.519531 C -3.835938 -0.4375 -3.878906 -0.296875 -3.898438 -0.0820312 L -4.023438 -0.0820312 L -4.023438 -1.386719 L -1.136719 -1.386719 C -0.929688 -1.386719 -0.761719 -1.441406 -0.625 -1.566406 C -0.492188 -1.691406 -0.429688 -1.84375 -0.429688 -2.019531 C -0.429688 -2.308594 -0.519531 -2.558594 -0.707031 -2.773438 C -0.777344 -2.84375 -0.839844 -2.898438 -0.902344 -2.933594 C -0.964844 -2.960938 -1.074219 -2.976562 -1.226562 -2.976562 L -3.289062 -2.976562 C -3.523438 -2.976562 -3.664062 -2.933594 -3.738281 -2.851562 C -3.808594 -2.761719 -3.855469 -2.585938 -3.871094 -2.316406 L -4.023438 -2.316406 L -4.023438 -3.730469 L -0.957031 -3.730469 C -0.742188 -3.730469 -0.609375 -3.753906 -0.546875 -3.828125 C -0.472656 -3.898438 -0.445312 -4.03125 -0.445312 -4.238281 Z M -0.445312 -4.292969 "/>
</g>
<g id="glyph-2-11">
<path d="M -4.09375 -1.429688 L -3.273438 -1.429688 C -3.59375 -1.652344 -3.808594 -1.84375 -3.933594 -1.992188 C -4.050781 -2.144531 -4.113281 -2.316406 -4.113281 -2.503906 C -4.113281 -2.65625 -4.066406 -2.773438 -3.988281 -2.859375 C -3.898438 -2.949219 -3.78125 -2.996094 -3.640625 -2.996094 C -3.515625 -2.996094 -3.414062 -2.960938 -3.34375 -2.898438 C -3.273438 -2.835938 -3.238281 -2.753906 -3.238281 -2.648438 C -3.238281 -2.53125 -3.289062 -2.414062 -3.414062 -2.289062 C -3.503906 -2.191406 -3.550781 -2.109375 -3.550781 -2.054688 C -3.550781 -1.929688 -3.460938 -1.789062 -3.289062 -1.644531 C -3.113281 -1.503906 -2.960938 -1.429688 -2.816406 -1.429688 L -0.804688 -1.429688 C -0.546875 -1.429688 -0.375 -1.476562 -0.285156 -1.582031 C -0.195312 -1.679688 -0.144531 -1.886719 -0.132812 -2.191406 L 0 -2.191406 L 0 -0.0429688 L -0.132812 -0.0429688 C -0.1875 -0.332031 -0.242188 -0.5 -0.3125 -0.570312 C -0.375 -0.644531 -0.519531 -0.679688 -0.75 -0.679688 L -2.988281 -0.679688 C -3.183594 -0.679688 -3.316406 -0.652344 -3.398438 -0.609375 C -3.476562 -0.5625 -3.523438 -0.484375 -3.523438 -0.375 C -3.523438 -0.277344 -3.503906 -0.167969 -3.488281 -0.0625 L -3.628906 -0.0625 C -3.746094 -0.4375 -3.90625 -0.875 -4.113281 -1.386719 Z M -4.09375 -1.429688 "/>
</g>
<g id="glyph-2-12">
<path d="M -4.023438 -4.246094 L -3.890625 -4.246094 C -3.871094 -4.140625 -3.835938 -4.050781 -3.773438 -3.988281 C -3.703125 -3.917969 -3.59375 -3.855469 -3.433594 -3.800781 L 0.214844 -2.457031 C 0.839844 -2.226562 1.289062 -1.984375 1.546875 -1.753906 C 1.804688 -1.519531 1.941406 -1.234375 1.941406 -0.894531 C 1.941406 -0.699219 1.886719 -0.546875 1.789062 -0.4375 C 1.691406 -0.320312 1.566406 -0.269531 1.421875 -0.269531 C 1.304688 -0.269531 1.207031 -0.304688 1.125 -0.375 C 1.046875 -0.445312 1.011719 -0.546875 1.011719 -0.652344 C 1.011719 -0.824219 1.046875 -0.976562 1.125 -1.117188 C 1.164062 -1.1875 1.1875 -1.269531 1.1875 -1.351562 C 1.1875 -1.476562 1.054688 -1.617188 0.796875 -1.796875 C 0.671875 -1.878906 0.5 -1.957031 0.285156 -2.039062 C 0.0703125 -2.109375 -0.0703125 -2.15625 -0.160156 -2.15625 C -0.234375 -2.15625 -0.535156 -2.03125 -1.0625 -1.78125 L -3.585938 -0.597656 C -3.753906 -0.519531 -3.863281 -0.359375 -3.898438 -0.125 L -4.023438 -0.125 L -4.023438 -1.957031 L -3.890625 -1.957031 C -3.878906 -1.761719 -3.863281 -1.628906 -3.828125 -1.554688 C -3.792969 -1.484375 -3.730469 -1.449219 -3.648438 -1.449219 C -3.578125 -1.449219 -3.460938 -1.484375 -3.28125 -1.566406 L -1.046875 -2.566406 L -3.515625 -3.433594 C -3.566406 -3.453125 -3.621094 -3.46875 -3.675781 -3.46875 C -3.816406 -3.46875 -3.890625 -3.328125 -3.890625 -3.058594 L -4.023438 -3.058594 Z M -4.023438 -4.246094 "/>
</g>
<g id="glyph-3-0">
<path d="M 3.785156 -2.621094 C 3.785156 -2.265625 3.742188 -1.929688 3.679688 -1.613281 C 3.609375 -1.296875 3.503906 -1.007812 3.371094 -0.746094 C 3.234375 -0.476562 3.050781 -0.269531 2.8125 -0.121094 C 2.574219 0.0234375 2.296875 0.101562 1.988281 0.101562 C 1.660156 0.101562 1.375 0.0234375 1.136719 -0.136719 C 0.890625 -0.292969 0.699219 -0.515625 0.570312 -0.792969 C 0.4375 -1.066406 0.339844 -1.359375 0.277344 -1.675781 C 0.214844 -1.988281 0.191406 -2.320312 0.191406 -2.671875 C 0.191406 -3.164062 0.246094 -3.601562 0.375 -3.996094 C 0.492188 -4.394531 0.691406 -4.722656 0.976562 -4.984375 C 1.265625 -5.238281 1.605469 -5.371094 2.019531 -5.371094 C 2.535156 -5.371094 2.957031 -5.117188 3.289062 -4.609375 C 3.617188 -4.101562 3.785156 -3.433594 3.785156 -2.621094 Z M 3.019531 -2.582031 C 3.019531 -3.417969 2.925781 -4.054688 2.75 -4.5 C 2.574219 -4.945312 2.3125 -5.167969 1.972656 -5.167969 C 1.636719 -5.167969 1.390625 -4.945312 1.214844 -4.5 C 1.042969 -4.054688 0.953125 -3.425781 0.953125 -2.613281 C 0.953125 -1.796875 1.042969 -1.167969 1.214844 -0.738281 C 1.390625 -0.308594 1.644531 -0.09375 1.988281 -0.09375 C 2.320312 -0.09375 2.574219 -0.308594 2.75 -0.738281 C 2.925781 -1.167969 3.019531 -1.789062 3.019531 -2.582031 Z M 3.019531 -2.582031 "/>
</g>
<g id="glyph-3-1">
<path d="M 1.4375 -0.339844 C 1.4375 -0.222656 1.390625 -0.121094 1.304688 -0.0390625 C 1.214844 0.0390625 1.113281 0.078125 0.992188 0.078125 C 0.867188 0.078125 0.761719 0.0390625 0.683594 -0.0390625 C 0.597656 -0.121094 0.554688 -0.222656 0.554688 -0.351562 C 0.554688 -0.46875 0.597656 -0.570312 0.683594 -0.660156 C 0.769531 -0.746094 0.875 -0.792969 1 -0.792969 C 1.113281 -0.792969 1.214844 -0.746094 1.304688 -0.660156 C 1.390625 -0.5625 1.4375 -0.460938 1.4375 -0.339844 Z M 1.4375 -0.339844 "/>
</g>
<g id="glyph-3-2">
<path d="M 3.542969 -5.4375 L 3.5625 -5.308594 C 2.933594 -5.207031 2.410156 -4.953125 1.996094 -4.546875 C 1.574219 -4.140625 1.3125 -3.640625 1.207031 -3.042969 C 1.511719 -3.28125 1.851562 -3.402344 2.21875 -3.402344 C 2.679688 -3.402344 3.042969 -3.25 3.3125 -2.957031 C 3.585938 -2.65625 3.71875 -2.25 3.71875 -1.742188 C 3.71875 -1.214844 3.585938 -0.792969 3.3125 -0.46875 C 2.996094 -0.0859375 2.574219 0.101562 2.050781 0.101562 C 1.398438 0.101562 0.929688 -0.160156 0.644531 -0.691406 C 0.390625 -1.144531 0.269531 -1.652344 0.269531 -2.21875 C 0.269531 -3.082031 0.554688 -3.816406 1.136719 -4.410156 C 1.460938 -4.746094 1.796875 -4.984375 2.144531 -5.125 C 2.496094 -5.269531 2.957031 -5.371094 3.542969 -5.4375 Z M 3.003906 -1.496094 C 3.003906 -2.519531 2.648438 -3.035156 1.929688 -3.035156 C 1.660156 -3.035156 1.445312 -2.964844 1.273438 -2.820312 C 1.097656 -2.679688 1.007812 -2.449219 1.007812 -2.113281 C 1.007812 -1.496094 1.105469 -1 1.296875 -0.644531 C 1.484375 -0.285156 1.773438 -0.109375 2.136719 -0.109375 C 2.417969 -0.109375 2.628906 -0.230469 2.78125 -0.484375 C 2.925781 -0.738281 3.003906 -1.074219 3.003906 -1.496094 Z M 3.003906 -1.496094 "/>
</g>
<g id="glyph-3-3">
<path d="M 3.132812 0 L 0.9375 0 L 0.9375 -0.121094 C 1.222656 -0.136719 1.421875 -0.183594 1.535156 -0.277344 C 1.636719 -0.375 1.691406 -0.53125 1.691406 -0.753906 L 1.691406 -4.324219 C 1.691406 -4.578125 1.613281 -4.714844 1.453125 -4.714844 C 1.375 -4.714844 1.253906 -4.679688 1.097656 -4.617188 L 0.882812 -4.539062 L 0.882812 -4.648438 L 2.304688 -5.371094 L 2.375 -5.347656 L 2.375 -0.605469 C 2.375 -0.429688 2.425781 -0.300781 2.535156 -0.230469 C 2.640625 -0.152344 2.835938 -0.121094 3.132812 -0.121094 Z M 3.132812 0 "/>
</g>
<g id="glyph-3-4">
<path d="M 0.46875 0.167969 L 0.445312 0.0078125 C 1.050781 -0.0859375 1.566406 -0.339844 1.988281 -0.753906 C 2.410156 -1.160156 2.703125 -1.683594 2.859375 -2.335938 C 2.550781 -2.035156 2.152344 -1.882812 1.667969 -1.882812 C 1.238281 -1.882812 0.890625 -2.027344 0.628906 -2.328125 C 0.367188 -2.621094 0.238281 -3.011719 0.238281 -3.496094 C 0.238281 -4.03125 0.390625 -4.476562 0.707031 -4.832031 C 1.023438 -5.191406 1.414062 -5.371094 1.890625 -5.371094 C 2.390625 -5.371094 2.804688 -5.167969 3.140625 -4.769531 C 3.472656 -4.339844 3.648438 -3.800781 3.648438 -3.132812 C 3.648438 -2.664062 3.5625 -2.226562 3.402344 -1.8125 C 3.242188 -1.398438 3.003906 -1.058594 2.695312 -0.769531 C 2.359375 -0.46875 2.042969 -0.261719 1.734375 -0.136719 C 1.414062 -0.0078125 0.992188 0.0859375 0.46875 0.167969 Z M 2.878906 -2.820312 L 2.878906 -3.132812 C 2.878906 -4.476562 2.527344 -5.148438 1.828125 -5.148438 C 1.574219 -5.148438 1.382812 -5.054688 1.246094 -4.878906 C 1.167969 -4.769531 1.097656 -4.609375 1.050781 -4.402344 C 0.992188 -4.1875 0.96875 -3.972656 0.96875 -3.765625 C 0.96875 -3.289062 1.058594 -2.917969 1.230469 -2.640625 C 1.40625 -2.359375 1.644531 -2.226562 1.945312 -2.226562 C 2.152344 -2.226562 2.359375 -2.273438 2.566406 -2.375 C 2.773438 -2.480469 2.878906 -2.628906 2.878906 -2.820312 Z M 2.878906 -2.820312 "/>
</g>
<g id="glyph-3-5">
<path d="M 3.570312 -5.132812 L 1.882812 0.0546875 L 1.367188 0.0546875 L 2.941406 -4.671875 L 1.230469 -4.671875 C 1 -4.671875 0.835938 -4.632812 0.722656 -4.554688 C 0.613281 -4.476562 0.46875 -4.292969 0.300781 -4.023438 L 0.160156 -4.09375 L 0.636719 -5.261719 L 3.570312 -5.261719 Z M 3.570312 -5.132812 "/>
</g>
<g id="glyph-3-6">
<path d="M 3.535156 -1.230469 C 3.535156 -0.820312 3.394531 -0.492188 3.109375 -0.253906 C 2.820312 -0.015625 2.449219 0.101562 1.972656 0.101562 C 1.527344 0.101562 1.160156 -0.015625 0.875 -0.253906 C 0.589844 -0.492188 0.445312 -0.804688 0.445312 -1.183594 C 0.445312 -1.460938 0.507812 -1.699219 0.652344 -1.898438 C 0.785156 -2.097656 1.066406 -2.34375 1.476562 -2.640625 C 1.082031 -2.964844 0.8125 -3.226562 0.683594 -3.433594 C 0.554688 -3.632812 0.492188 -3.863281 0.492188 -4.132812 C 0.492188 -4.507812 0.636719 -4.808594 0.921875 -5.03125 C 1.207031 -5.253906 1.582031 -5.371094 2.035156 -5.371094 C 2.417969 -5.371094 2.734375 -5.261719 2.988281 -5.039062 C 3.242188 -4.816406 3.371094 -4.554688 3.371094 -4.234375 C 3.371094 -3.941406 3.289062 -3.710938 3.140625 -3.535156 C 2.988281 -3.363281 2.710938 -3.164062 2.304688 -2.949219 C 2.78125 -2.628906 3.101562 -2.34375 3.273438 -2.097656 C 3.449219 -1.84375 3.535156 -1.558594 3.535156 -1.230469 Z M 2.820312 -4.234375 C 2.820312 -4.507812 2.742188 -4.730469 2.589844 -4.894531 C 2.433594 -5.0625 2.226562 -5.148438 1.957031 -5.148438 C 1.683594 -5.148438 1.46875 -5.078125 1.3125 -4.9375 C 1.152344 -4.792969 1.082031 -4.601562 1.082031 -4.363281 C 1.082031 -4.117188 1.152344 -3.894531 1.3125 -3.695312 C 1.46875 -3.496094 1.726562 -3.296875 2.074219 -3.089844 C 2.34375 -3.25 2.535156 -3.417969 2.648438 -3.59375 C 2.757812 -3.765625 2.820312 -3.980469 2.820312 -4.234375 Z M 2.152344 -2.160156 L 1.683594 -2.480469 C 1.445312 -2.289062 1.289062 -2.097656 1.191406 -1.914062 C 1.097656 -1.734375 1.050781 -1.511719 1.050781 -1.253906 C 1.050781 -0.890625 1.136719 -0.613281 1.320312 -0.414062 C 1.503906 -0.207031 1.75 -0.109375 2.058594 -0.109375 C 2.3125 -0.109375 2.527344 -0.191406 2.6875 -0.351562 C 2.84375 -0.507812 2.933594 -0.722656 2.933594 -0.984375 C 2.933594 -1.222656 2.871094 -1.429688 2.75 -1.613281 C 2.621094 -1.789062 2.425781 -1.972656 2.152344 -2.160156 Z M 2.152344 -2.160156 "/>
</g>
<g id="glyph-3-7">
<path d="M 3.765625 -1.089844 L 3.339844 0 L 0.230469 0 L 0.230469 -0.09375 L 1.644531 -1.597656 C 2.011719 -1.980469 2.28125 -2.335938 2.441406 -2.664062 C 2.597656 -2.980469 2.679688 -3.3125 2.679688 -3.664062 C 2.679688 -4.015625 2.574219 -4.292969 2.382812 -4.492188 C 2.1875 -4.679688 1.914062 -4.785156 1.574219 -4.785156 C 1.289062 -4.785156 1.058594 -4.707031 0.890625 -4.5625 C 0.722656 -4.410156 0.5625 -4.140625 0.40625 -3.75 L 0.238281 -3.792969 C 0.324219 -4.285156 0.507812 -4.664062 0.777344 -4.953125 C 1.050781 -5.230469 1.421875 -5.371094 1.890625 -5.371094 C 2.328125 -5.371094 2.6875 -5.238281 2.957031 -4.976562 C 3.226562 -4.707031 3.363281 -4.371094 3.363281 -3.972656 C 3.363281 -3.371094 3.019531 -2.71875 2.34375 -2.003906 L 1.035156 -0.605469 L 2.894531 -0.605469 C 3.066406 -0.605469 3.203125 -0.636719 3.304688 -0.707031 C 3.410156 -0.769531 3.527344 -0.914062 3.65625 -1.136719 Z M 3.765625 -1.089844 "/>
</g>
<g id="glyph-3-8">
<path d="M 0.484375 -4.054688 L 0.359375 -4.085938 C 0.476562 -4.484375 0.667969 -4.792969 0.929688 -5.023438 C 1.183594 -5.253906 1.519531 -5.371094 1.914062 -5.371094 C 2.28125 -5.371094 2.582031 -5.269531 2.8125 -5.070312 C 3.035156 -4.863281 3.15625 -4.601562 3.15625 -4.285156 C 3.15625 -3.847656 2.910156 -3.480469 2.417969 -3.1875 C 2.703125 -3.058594 2.925781 -2.917969 3.074219 -2.765625 C 3.304688 -2.503906 3.425781 -2.160156 3.425781 -1.742188 C 3.425781 -1.3125 3.296875 -0.945312 3.058594 -0.628906 C 2.878906 -0.382812 2.613281 -0.199219 2.28125 -0.078125 C 1.945312 0.0390625 1.589844 0.101562 1.214844 0.101562 C 0.621094 0.101562 0.324219 -0.0390625 0.324219 -0.339844 C 0.324219 -0.421875 0.359375 -0.492188 0.421875 -0.546875 C 0.484375 -0.597656 0.554688 -0.628906 0.652344 -0.628906 C 0.777344 -0.628906 0.945312 -0.554688 1.136719 -0.421875 C 1.367188 -0.253906 1.597656 -0.175781 1.820312 -0.175781 C 2.105469 -0.175781 2.351562 -0.285156 2.550781 -0.523438 C 2.75 -0.761719 2.851562 -1.050781 2.851562 -1.390625 C 2.851562 -1.996094 2.574219 -2.382812 2.027344 -2.542969 C 1.859375 -2.589844 1.589844 -2.621094 1.214844 -2.621094 L 1.214844 -2.734375 C 1.511719 -2.828125 1.734375 -2.925781 1.882812 -3.019531 C 2.3125 -3.257812 2.527344 -3.617188 2.527344 -4.085938 C 2.527344 -4.347656 2.449219 -4.546875 2.296875 -4.6875 C 2.144531 -4.824219 1.9375 -4.894531 1.667969 -4.894531 C 1.191406 -4.894531 0.792969 -4.609375 0.484375 -4.054688 Z M 0.484375 -4.054688 "/>
</g>
</g>
<clipPath id="clip-0">
<path clip-rule="nonzero" d="M 0.976562 0 L 299.023438 0 L 299.023438 150.027344 L 0.976562 150.027344 Z M 0.976562 0 "/>
</clipPath>
</defs>
<g clip-path="url(#clip-0)">
<path fill-rule="nonzero" fill="rgb(100%, 100%, 100%)" fill-opacity="1" d="M 0.976562 150.027344 L 299.023438 150.027344 L 299.023438 0 L 0.976562 0 Z M 0.976562 150.027344 "/>
</g>
<path fill-rule="nonzero" fill="rgb(100%, 100%, 100%)" fill-opacity="1" d="M 37.039062 128.113281 L 297.59375 128.113281 L 297.59375 1.429688 L 37.039062 1.429688 Z M 37.039062 128.113281 "/>
<path fill="none" stroke-width="0.6" stroke-linecap="butt" stroke-linejoin="round" stroke="rgb(8.627319%, 9.411621%, 11.372375%)" stroke-opacity="1" stroke-miterlimit="10" d="M 58.152549 22.058217 L 58.152549 18.55888 " transform="matrix(0.993492, 0, 0, -0.993492, 0.975921, 150.027938)"/>
<g fill="rgb(8.627319%, 9.411621%, 11.372375%)" fill-opacity="1">
<use xlink:href="#glyph-0-0" x="46.340929" y="139.817327"/>
<use xlink:href="#glyph-0-1" x="51.112074" y="139.817327"/>
<use xlink:href="#glyph-0-2" x="54.288068" y="139.817327"/>
<use xlink:href="#glyph-0-3" x="57.07064" y="139.817327"/>
<use xlink:href="#glyph-0-4" x="60.246635" y="139.817327"/>
<use xlink:href="#glyph-0-5" x="62.235208" y="139.817327"/>
<use xlink:href="#glyph-0-6" x="64.223781" y="139.817327"/>
<use xlink:href="#glyph-0-3" x="67.800351" y="139.817327"/>
</g>
<g fill="rgb(8.627319%, 9.411621%, 11.372375%)" fill-opacity="1">
<use xlink:href="#glyph-0-7" x="38.245523" y="147.023247"/>
<use xlink:href="#glyph-0-7" x="41.822094" y="147.023247"/>
<use xlink:href="#glyph-0-8" x="45.398664" y="147.023247"/>
<use xlink:href="#glyph-0-9" x="48.975234" y="147.023247"/>
<use xlink:href="#glyph-0-10" x="50.76352" y="147.023247"/>
<use xlink:href="#glyph-0-11" x="54.34009" y="147.023247"/>
<use xlink:href="#glyph-0-12" x="57.91666" y="147.023247"/>
<use xlink:href="#glyph-0-9" x="59.704946" y="147.023247"/>
<use xlink:href="#glyph-0-7" x="61.493231" y="147.023247"/>
<use xlink:href="#glyph-0-8" x="65.069801" y="147.023247"/>
<use xlink:href="#glyph-0-9" x="68.646372" y="147.023247"/>
<use xlink:href="#glyph-0-3" x="70.434657" y="147.023247"/>
<use xlink:href="#glyph-0-10" x="73.610651" y="147.023247"/>
<use xlink:href="#glyph-0-13" x="77.187222" y="147.023247"/>
</g>
<path fill="none" stroke-width="0.6" stroke-linecap="butt" stroke-linejoin="round" stroke="rgb(8.627319%, 9.411621%, 11.372375%)" stroke-opacity="1" stroke-miterlimit="10" d="M 112.793319 22.058217 L 112.793319 18.55888 " transform="matrix(0.993492, 0, 0, -0.993492, 0.975921, 150.027938)"/>
<g fill="rgb(8.627319%, 9.411621%, 11.372375%)" fill-opacity="1">
<use xlink:href="#glyph-0-14" x="103.028949" y="139.817327"/>
<use xlink:href="#glyph-0-3" x="107.800094" y="139.817327"/>
<use xlink:href="#glyph-0-15" x="110.976088" y="139.817327"/>
<use xlink:href="#glyph-0-5" x="114.152083" y="139.817327"/>
<use xlink:href="#glyph-0-10" x="116.140656" y="139.817327"/>
<use xlink:href="#glyph-0-3" x="119.717226" y="139.817327"/>
</g>
<g fill="rgb(8.627319%, 9.411621%, 11.372375%)" fill-opacity="1">
<use xlink:href="#glyph-0-8" x="84.626066" y="147.023247"/>
<use xlink:href="#glyph-0-8" x="88.202636" y="147.023247"/>
<use xlink:href="#glyph-0-16" x="91.779207" y="147.023247"/>
<use xlink:href="#glyph-0-9" x="95.355777" y="147.023247"/>
<use xlink:href="#glyph-0-10" x="97.144062" y="147.023247"/>
<use xlink:href="#glyph-0-11" x="100.720633" y="147.023247"/>
<use xlink:href="#glyph-0-12" x="104.297203" y="147.023247"/>
<use xlink:href="#glyph-0-9" x="106.085488" y="147.023247"/>
<use xlink:href="#glyph-0-1" x="107.873773" y="147.023247"/>
<use xlink:href="#glyph-0-17" x="111.049768" y="147.023247"/>
<use xlink:href="#glyph-0-18" x="114.626338" y="147.023247"/>
<use xlink:href="#glyph-0-13" x="118.202909" y="147.023247"/>
<use xlink:href="#glyph-0-12" x="119.991194" y="147.023247"/>
<use xlink:href="#glyph-0-9" x="121.779479" y="147.023247"/>
<use xlink:href="#glyph-0-19" x="123.567764" y="147.023247"/>
<use xlink:href="#glyph-0-20" x="127.144335" y="147.023247"/>
<use xlink:href="#glyph-0-9" x="130.720905" y="147.023247"/>
<use xlink:href="#glyph-0-3" x="132.50919" y="147.023247"/>
<use xlink:href="#glyph-0-10" x="135.685185" y="147.023247"/>
<use xlink:href="#glyph-0-13" x="139.261755" y="147.023247"/>
</g>
<path fill="none" stroke-width="0.6" stroke-linecap="butt" stroke-linejoin="round" stroke="rgb(8.627319%, 9.411621%, 11.372375%)" stroke-opacity="1" stroke-miterlimit="10" d="M 167.430158 22.058217 L 167.430158 18.55888 " transform="matrix(0.993492, 0, 0, -0.993492, 0.975921, 150.027938)"/>
<g fill="rgb(8.627319%, 9.411621%, 11.372375%)" fill-opacity="1">
<use xlink:href="#glyph-0-21" x="147.33713" y="139.848373"/>
<use xlink:href="#glyph-0-9" x="152.237031" y="139.848373"/>
<use xlink:href="#glyph-0-22" x="154.025316" y="139.848373"/>
<use xlink:href="#glyph-0-23" x="157.601887" y="139.848373"/>
<use xlink:href="#glyph-0-24" x="159.983882" y="139.848373"/>
<use xlink:href="#glyph-0-10" x="163.560453" y="139.848373"/>
<use xlink:href="#glyph-0-24" x="167.137023" y="139.848373"/>
<use xlink:href="#glyph-0-17" x="170.713594" y="139.848373"/>
<use xlink:href="#glyph-0-25" x="174.290164" y="139.848373"/>
<use xlink:href="#glyph-0-9" x="176.278737" y="139.848373"/>
<use xlink:href="#glyph-0-20" x="178.067022" y="139.848373"/>
<use xlink:href="#glyph-0-13" x="181.643593" y="139.848373"/>
<use xlink:href="#glyph-0-26" x="183.431878" y="139.848373"/>
</g>
<g fill="rgb(8.627319%, 9.411621%, 11.372375%)" fill-opacity="1">
<use xlink:href="#glyph-0-7" x="156.713208" y="147.091549"/>
<use xlink:href="#glyph-0-26" x="160.289779" y="147.091549"/>
<use xlink:href="#glyph-0-20" x="163.866349" y="147.091549"/>
<use xlink:href="#glyph-0-9" x="167.442919" y="147.091549"/>
<use xlink:href="#glyph-0-3" x="169.231205" y="147.091549"/>
<use xlink:href="#glyph-0-10" x="172.407199" y="147.091549"/>
<use xlink:href="#glyph-0-13" x="175.983769" y="147.091549"/>
</g>
<path fill="none" stroke-width="0.6" stroke-linecap="butt" stroke-linejoin="round" stroke="rgb(8.627319%, 9.411621%, 11.372375%)" stroke-opacity="1" stroke-miterlimit="10" d="M 222.066997 22.058217 L 222.066997 18.55888 " transform="matrix(0.993492, 0, 0, -0.993492, 0.975921, 150.027938)"/>
<g fill="rgb(8.627319%, 9.411621%, 11.372375%)" fill-opacity="1">
<use xlink:href="#glyph-0-21" x="203.621543" y="139.817327"/>
<use xlink:href="#glyph-0-9" x="208.521445" y="139.817327"/>
<use xlink:href="#glyph-0-27" x="210.30973" y="139.817327"/>
<use xlink:href="#glyph-0-5" x="215.874874" y="139.817327"/>
<use xlink:href="#glyph-0-11" x="217.863447" y="139.817327"/>
<use xlink:href="#glyph-0-17" x="221.440017" y="139.817327"/>
<use xlink:href="#glyph-0-10" x="225.016587" y="139.817327"/>
<use xlink:href="#glyph-0-9" x="228.593158" y="139.817327"/>
<use xlink:href="#glyph-0-20" x="230.381443" y="139.817327"/>
<use xlink:href="#glyph-0-13" x="233.958013" y="139.817327"/>
<use xlink:href="#glyph-0-8" x="235.746299" y="139.817327"/>
</g>
<g fill="rgb(8.627319%, 9.411621%, 11.372375%)" fill-opacity="1">
<use xlink:href="#glyph-0-7" x="210.995115" y="147.060503"/>
<use xlink:href="#glyph-0-26" x="214.571686" y="147.060503"/>
<use xlink:href="#glyph-0-20" x="218.148256" y="147.060503"/>
<use xlink:href="#glyph-0-9" x="221.724826" y="147.060503"/>
<use xlink:href="#glyph-0-3" x="223.513111" y="147.060503"/>
<use xlink:href="#glyph-0-10" x="226.689106" y="147.060503"/>
<use xlink:href="#glyph-0-13" x="230.265676" y="147.060503"/>
</g>
<path fill="none" stroke-width="0.6" stroke-linecap="butt" stroke-linejoin="round" stroke="rgb(8.627319%, 9.411621%, 11.372375%)" stroke-opacity="1" stroke-miterlimit="10" d="M 276.703836 22.058217 L 276.703836 18.55888 " transform="matrix(0.993492, 0, 0, -0.993492, 0.975921, 150.027938)"/>
<g fill="rgb(8.627319%, 9.411621%, 11.372375%)" fill-opacity="1">
<use xlink:href="#glyph-0-8" x="265.277022" y="139.817327"/>
<use xlink:href="#glyph-0-20" x="268.853592" y="139.817327"/>
<use xlink:href="#glyph-0-20" x="272.430163" y="139.817327"/>
<use xlink:href="#glyph-0-9" x="276.006733" y="139.817327"/>
<use xlink:href="#glyph-0-3" x="277.795018" y="139.817327"/>
<use xlink:href="#glyph-0-10" x="280.971013" y="139.817327"/>
<use xlink:href="#glyph-0-13" x="284.547583" y="139.817327"/>
</g>
<g fill="rgb(8.627319%, 9.411621%, 11.372375%)" fill-opacity="1">
<use xlink:href="#glyph-0-28" x="259.26174" y="147.023247"/>
<use xlink:href="#glyph-0-2" x="261.643736" y="147.023247"/>
<use xlink:href="#glyph-0-17" x="264.426307" y="147.023247"/>
<use xlink:href="#glyph-0-29" x="268.002878" y="147.023247"/>
<use xlink:href="#glyph-0-27" x="271.579448" y="147.023247"/>
<use xlink:href="#glyph-0-5" x="277.144592" y="147.023247"/>
<use xlink:href="#glyph-0-25" x="279.133165" y="147.023247"/>
<use xlink:href="#glyph-0-25" x="281.121738" y="147.023247"/>
<use xlink:href="#glyph-0-3" x="283.110311" y="147.023247"/>
<use xlink:href="#glyph-0-22" x="286.286306" y="147.023247"/>
<use xlink:href="#glyph-0-30" x="289.862876" y="147.023247"/>
</g>
<path fill="none" stroke-width="0.6" stroke-linecap="butt" stroke-linejoin="round" stroke="rgb(8.627319%, 9.411621%, 11.372375%)" stroke-opacity="1" stroke-miterlimit="10" d="M 36.299386 30.853741 L 32.800049 30.853741 " transform="matrix(0.993492, 0, 0, -0.993492, 0.975921, 150.027938)"/>
<g fill="rgb(8.627319%, 9.411621%, 11.372375%)" fill-opacity="1">
<use xlink:href="#glyph-1-0" x="14.437114" y="122.426384"/>
<use xlink:href="#glyph-1-1" x="18.907827" y="122.426384"/>
<use xlink:href="#glyph-1-2" x="21.143183" y="122.426384"/>
<use xlink:href="#glyph-1-0" x="25.613896" y="122.426384"/>
</g>
<path fill="none" stroke-width="0.6" stroke-linecap="butt" stroke-linejoin="round" stroke="rgb(8.627319%, 9.411621%, 11.372375%)" stroke-opacity="1" stroke-miterlimit="10" d="M 36.299386 52.836655 L 32.800049 52.836655 " transform="matrix(0.993492, 0, 0, -0.993492, 0.975921, 150.027938)"/>
<g fill="rgb(8.627319%, 9.411621%, 11.372375%)" fill-opacity="1">
<use xlink:href="#glyph-1-0" x="14.437114" y="100.584638"/>
<use xlink:href="#glyph-1-1" x="18.907827" y="100.584638"/>
<use xlink:href="#glyph-1-2" x="21.143183" y="100.584638"/>
<use xlink:href="#glyph-1-3" x="25.613896" y="100.584638"/>
</g>
<path fill="none" stroke-width="0.6" stroke-linecap="butt" stroke-linejoin="round" stroke="rgb(8.627319%, 9.411621%, 11.372375%)" stroke-opacity="1" stroke-miterlimit="10" d="M 36.299386 74.8235 L 32.800049 74.8235 " transform="matrix(0.993492, 0, 0, -0.993492, 0.975921, 150.027938)"/>
<g fill="rgb(8.627319%, 9.411621%, 11.372375%)" fill-opacity="1">
<use xlink:href="#glyph-1-0" x="14.437114" y="78.742893"/>
<use xlink:href="#glyph-1-1" x="18.907827" y="78.742893"/>
<use xlink:href="#glyph-1-4" x="21.143183" y="78.742893"/>
<use xlink:href="#glyph-1-0" x="25.613896" y="78.742893"/>
</g>
<path fill="none" stroke-width="0.6" stroke-linecap="butt" stroke-linejoin="round" stroke="rgb(8.627319%, 9.411621%, 11.372375%)" stroke-opacity="1" stroke-miterlimit="10" d="M 36.299386 96.806414 L 32.800049 96.806414 " transform="matrix(0.993492, 0, 0, -0.993492, 0.975921, 150.027938)"/>
<g fill="rgb(8.627319%, 9.411621%, 11.372375%)" fill-opacity="1">
<use xlink:href="#glyph-1-0" x="14.437114" y="56.901147"/>
<use xlink:href="#glyph-1-1" x="18.907827" y="56.901147"/>
<use xlink:href="#glyph-1-4" x="21.143183" y="56.901147"/>
<use xlink:href="#glyph-1-3" x="25.613896" y="56.901147"/>
</g>
<path fill="none" stroke-width="0.6" stroke-linecap="butt" stroke-linejoin="round" stroke="rgb(8.627319%, 9.411621%, 11.372375%)" stroke-opacity="1" stroke-miterlimit="10" d="M 36.299386 118.793259 L 32.800049 118.793259 " transform="matrix(0.993492, 0, 0, -0.993492, 0.975921, 150.027938)"/>
<g fill="rgb(8.627319%, 9.411621%, 11.372375%)" fill-opacity="1">
<use xlink:href="#glyph-1-0" x="14.437114" y="35.059402"/>
<use xlink:href="#glyph-1-1" x="18.907827" y="35.059402"/>
<use xlink:href="#glyph-1-5" x="21.143183" y="35.059402"/>
<use xlink:href="#glyph-1-0" x="25.613896" y="35.059402"/>
</g>
<path fill="none" stroke-width="0.6" stroke-linecap="butt" stroke-linejoin="round" stroke="rgb(8.627319%, 9.411621%, 11.372375%)" stroke-opacity="1" stroke-miterlimit="10" d="M 36.299386 140.776172 L 32.800049 140.776172 " transform="matrix(0.993492, 0, 0, -0.993492, 0.975921, 150.027938)"/>
<g fill="rgb(8.627319%, 9.411621%, 11.372375%)" fill-opacity="1">
<use xlink:href="#glyph-1-0" x="14.437114" y="13.217657"/>
<use xlink:href="#glyph-1-1" x="18.907827" y="13.217657"/>
<use xlink:href="#glyph-1-5" x="21.143183" y="13.217657"/>
<use xlink:href="#glyph-1-3" x="25.613896" y="13.217657"/>
</g>
<g fill="rgb(8.627319%, 9.411621%, 11.372375%)" fill-opacity="1">
<use xlink:href="#glyph-2-0" x="8.50721" y="100.66158"/>
<use xlink:href="#glyph-2-1" x="8.50721" y="94.205871"/>
<use xlink:href="#glyph-2-2" x="8.50721" y="90.235878"/>
<use xlink:href="#glyph-2-3" x="8.50721" y="87.750161"/>
<use xlink:href="#glyph-2-4" x="8.50721" y="85.264445"/>
<use xlink:href="#glyph-2-1" x="8.50721" y="80.793732"/>
<use xlink:href="#glyph-2-5" x="8.50721" y="76.823739"/>
<use xlink:href="#glyph-2-3" x="8.50721" y="74.338022"/>
<use xlink:href="#glyph-2-6" x="8.50721" y="71.852306"/>
<use xlink:href="#glyph-2-7" x="8.50721" y="67.381593"/>
<use xlink:href="#glyph-2-8" x="8.50721" y="62.91088"/>
<use xlink:href="#glyph-2-1" x="8.50721" y="60.675523"/>
<use xlink:href="#glyph-2-9" x="8.50721" y="56.70553"/>
<use xlink:href="#glyph-2-9" x="8.50721" y="52.735537"/>
<use xlink:href="#glyph-2-10" x="8.50721" y="48.765544"/>
<use xlink:href="#glyph-2-11" x="8.50721" y="44.294831"/>
<use xlink:href="#glyph-2-1" x="8.50721" y="41.317336"/>
<use xlink:href="#glyph-2-9" x="8.50721" y="37.347343"/>
<use xlink:href="#glyph-2-12" x="8.50721" y="33.37735"/>
</g>
<path fill="none" stroke-width="0.6" stroke-linecap="square" stroke-linejoin="miter" stroke="rgb(8.627319%, 9.411621%, 11.372375%)" stroke-opacity="1" stroke-miterlimit="10" d="M 36.299386 22.058217 L 36.299386 149.571697 " transform="matrix(0.993492, 0, 0, -0.993492, 0.975921, 150.027938)"/>
<path fill="none" stroke-width="0.6" stroke-linecap="square" stroke-linejoin="miter" stroke="rgb(8.627319%, 9.411621%, 11.372375%)" stroke-opacity="1" stroke-miterlimit="10" d="M 36.299386 22.058217 L 298.56093 22.058217 " transform="matrix(0.993492, 0, 0, -0.993492, 0.975921, 150.027938)"/>
<path fill="none" stroke-width="1.2" stroke-linecap="square" stroke-linejoin="round" stroke="rgb(9.01947%, 27.058411%, 47.842407%)" stroke-opacity="1" stroke-miterlimit="10" d="M 58.152549 39.381901 L 112.793319 108.613727 L 167.430158 121.234931 L 222.066997 126.936098 L 276.703836 128.968859 " transform="matrix(0.993492, 0, 0, -0.993492, 0.975921, 150.027938)"/>
<path fill-rule="nonzero" fill="rgb(9.01947%, 27.058411%, 47.842407%)" fill-opacity="1" stroke-width="1" stroke-linecap="butt" stroke-linejoin="round" stroke="rgb(9.01947%, 27.058411%, 47.842407%)" stroke-opacity="1" stroke-miterlimit="10" d="M -0.00182626 -1.998268 C 0.528972 -1.998268 1.040111 -1.78988 1.413636 -1.412424 C 1.791092 -1.038899 1.99948 -0.531692 1.99948 -0.000893409 C 1.99948 0.529905 1.791092 1.041044 1.413636 1.414569 C 1.040111 1.788093 0.528972 2.000413 -0.00182626 2.000413 C -0.528693 2.000413 -1.039832 1.788093 -1.413357 1.414569 C -1.790813 1.041044 -1.999201 0.529905 -1.999201 -0.000893409 C -1.999201 -0.531692 -1.790813 -1.038899 -1.413357 -1.412424 C -1.039832 -1.78988 -0.528693 -1.998268 -0.00182626 -1.998268 Z M -0.00182626 -1.998268 " transform="matrix(0.993492, 0, 0, -0.993492, 58.751814, 110.901456)"/>
<path fill-rule="nonzero" fill="rgb(9.01947%, 27.058411%, 47.842407%)" fill-opacity="1" stroke-width="1" stroke-linecap="butt" stroke-linejoin="round" stroke="rgb(9.01947%, 27.058411%, 47.842407%)" stroke-opacity="1" stroke-miterlimit="10" d="M 0.00144435 -2.00141 C 0.532243 -2.00141 1.03945 -1.78909 1.412975 -1.415566 C 1.790431 -1.038109 1.998819 -0.530902 1.998819 -0.000103519 C 1.998819 0.530695 1.790431 1.037902 1.412975 1.415359 C 1.03945 1.788883 0.532243 2.001203 0.00144435 2.001203 C -0.529354 2.001203 -1.040493 1.788883 -1.414018 1.415359 C -1.787543 1.037902 -1.999862 0.530695 -1.999862 -0.000103519 C -1.999862 -0.530902 -1.787543 -1.038109 -1.414018 -1.415566 C -1.040493 -1.78909 -0.529354 -2.00141 0.00144435 -2.00141 Z M 0.00144435 -2.00141 " transform="matrix(0.993492, 0, 0, -0.993492, 113.033721, 42.120991)"/>
<path fill-rule="nonzero" fill="rgb(9.01947%, 27.058411%, 47.842407%)" fill-opacity="1" stroke-width="1" stroke-linecap="butt" stroke-linejoin="round" stroke="rgb(9.01947%, 27.058411%, 47.842407%)" stroke-opacity="1" stroke-miterlimit="10" d="M 0.000783118 -2.001125 C 0.531581 -2.001125 1.038789 -1.788806 1.412313 -1.415281 C 1.78977 -1.037825 1.998157 -0.530617 1.998157 0.00018106 C 1.998157 0.530979 1.78977 1.038187 1.412313 1.415643 C 1.038789 1.789168 0.531581 2.001487 0.000783118 2.001487 C -0.530015 2.001487 -1.037222 1.789168 -1.414679 1.415643 C -1.788204 1.038187 -2.000523 0.530979 -2.000523 0.00018106 C -2.000523 -0.530617 -1.788204 -1.037825 -1.414679 -1.415281 C -1.037222 -1.788806 -0.530015 -2.001125 0.000783118 -2.001125 Z M 0.000783118 -2.001125 " transform="matrix(0.993492, 0, 0, -0.993492, 167.315628, 29.582211)"/>
<path fill-rule="nonzero" fill="rgb(9.01947%, 27.058411%, 47.842407%)" fill-opacity="1" stroke-width="1" stroke-linecap="butt" stroke-linejoin="round" stroke="rgb(9.01947%, 27.058411%, 47.842407%)" stroke-opacity="1" stroke-miterlimit="10" d="M 0.000121886 -1.999728 C 0.53092 -1.999728 1.038127 -1.787409 1.415584 -1.413884 C 1.789109 -1.040359 2.001428 -0.52922 2.001428 0.00157792 C 2.001428 0.528444 1.789109 1.039583 1.415584 1.413108 C 1.038127 1.790565 0.53092 1.998952 0.000121886 1.998952 C -0.530676 1.998952 -1.037884 1.790565 -1.41534 1.413108 C -1.788865 1.039583 -2.001184 0.528444 -2.001184 0.00157792 C -2.001184 -0.52922 -1.788865 -1.040359 -1.41534 -1.413884 C -1.037884 -1.787409 -0.530676 -1.999728 0.000121886 -1.999728 Z M 0.000121886 -1.999728 " transform="matrix(0.993492, 0, 0, -0.993492, 221.597535, 23.919536)"/>
<path fill-rule="nonzero" fill="rgb(9.01947%, 27.058411%, 47.842407%)" fill-opacity="1" stroke-width="1" stroke-linecap="butt" stroke-linejoin="round" stroke="rgb(9.01947%, 27.058411%, 47.842407%)" stroke-opacity="1" stroke-miterlimit="10" d="M -0.000539346 -1.998668 C 0.530259 -1.998668 1.037466 -1.79028 1.414923 -1.412824 C 1.788448 -1.039299 2.000767 -0.532092 2.000767 -0.00129336 C 2.000767 0.529505 1.788448 1.040644 1.414923 1.414169 C 1.037466 1.787694 0.530259 2.000013 -0.000539346 2.000013 C -0.531338 2.000013 -1.038545 1.787694 -1.416001 1.414169 C -1.789526 1.040644 -2.001846 0.529505 -2.001846 -0.00129336 C -2.001846 -0.532092 -1.789526 -1.039299 -1.416001 -1.412824 C -1.038545 -1.79028 -0.531338 -1.998668 -0.000539346 -1.998668 Z M -0.000539346 -1.998668 " transform="matrix(0.993492, 0, 0, -0.993492, 275.879442, 21.897153)"/>
<g fill="rgb(8.627319%, 9.411621%, 11.372375%)" fill-opacity="1">
<use xlink:href="#glyph-3-0" x="49.810388" y="103.947014"/>
<use xlink:href="#glyph-3-1" x="53.784355" y="103.947014"/>
<use xlink:href="#glyph-3-2" x="55.771339" y="103.947014"/>
<use xlink:href="#glyph-3-3" x="59.745306" y="103.947014"/>
<use xlink:href="#glyph-3-4" x="63.719273" y="103.947014"/>
</g>
<g fill="rgb(8.627319%, 9.411621%, 11.372375%)" fill-opacity="1">
<use xlink:href="#glyph-3-0" x="104.092295" y="35.166548"/>
<use xlink:href="#glyph-3-1" x="108.066262" y="35.166548"/>
<use xlink:href="#glyph-3-5" x="110.053246" y="35.166548"/>
<use xlink:href="#glyph-3-5" x="114.027213" y="35.166548"/>
<use xlink:href="#glyph-3-5" x="118.00118" y="35.166548"/>
</g>
<g fill="rgb(8.627319%, 9.411621%, 11.372375%)" fill-opacity="1">
<use xlink:href="#glyph-3-0" x="158.374202" y="22.627769"/>
<use xlink:href="#glyph-3-1" x="162.348169" y="22.627769"/>
<use xlink:href="#glyph-3-6" x="164.335153" y="22.627769"/>
<use xlink:href="#glyph-3-0" x="168.30912" y="22.627769"/>
<use xlink:href="#glyph-3-2" x="172.283087" y="22.627769"/>
</g>
<g fill="rgb(8.627319%, 9.411621%, 11.372375%)" fill-opacity="1">
<use xlink:href="#glyph-3-0" x="212.656109" y="16.965094"/>
<use xlink:href="#glyph-3-1" x="216.630076" y="16.965094"/>
<use xlink:href="#glyph-3-6" x="218.61706" y="16.965094"/>
<use xlink:href="#glyph-3-3" x="222.591027" y="16.965094"/>
<use xlink:href="#glyph-3-4" x="226.564994" y="16.965094"/>
</g>
<g fill="rgb(8.627319%, 9.411621%, 11.372375%)" fill-opacity="1">
<use xlink:href="#glyph-3-0" x="266.938016" y="14.94271"/>
<use xlink:href="#glyph-3-1" x="270.911983" y="14.94271"/>
<use xlink:href="#glyph-3-6" x="272.898967" y="14.94271"/>
<use xlink:href="#glyph-3-7" x="276.872934" y="14.94271"/>
<use xlink:href="#glyph-3-8" x="280.846901" y="14.94271"/>
</g>
</svg>
